<svg width="25" height="22" viewBox="0 0 25 22" fill="none" xmlns="http://www.w3.org/2000/svg">
<path d="M17.3684 15.897V11H19.7764V15.897H17.3684ZM22.1844 4.89704V2.4363C22.1844 1.76815 21.9482 1.19506 21.4757 0.717037C21.0032 0.239012 20.4368 0 19.7764 0H4.06402C3.0627 0 2.20769 0.358519 1.49898 1.07556C0.792954 1.78988 0.439941 2.65358 0.439941 3.66667V18.3333C0.439941 19.6696 0.864093 20.6148 1.7124 21.1689C2.5607 21.723 3.34458 22 4.06402 22H22.1844C22.8636 22 23.4394 21.761 23.9119 21.283C24.3817 20.8049 24.6166 20.2319 24.6166 19.5637V7.33333C24.6166 6.66518 24.3817 6.0921 23.9119 5.61407C23.4394 5.13605 22.8636 4.89704 22.1844 4.89704ZM4.06402 2.4363H19.7764V4.89704H4.06402C3.74188 4.87803 3.47209 4.74901 3.25464 4.51C3.0372 4.2737 2.92848 3.99259 2.92848 3.66667C2.92848 3.34074 3.0372 3.05963 3.25464 2.82333C3.47209 2.58432 3.74188 2.45531 4.06402 2.4363ZM22.1844 19.5637H4.09221C3.80765 19.5447 3.53383 19.4591 3.27075 19.307C3.00499 19.1549 2.8721 18.8304 2.8721 18.3333V7.10519C3.0627 7.18123 3.25599 7.23827 3.45196 7.2763C3.65061 7.31432 3.85463 7.33333 4.06402 7.33333H22.1844V19.5637Z" fill="#BBBBBB"/>
</svg>
