<svg width="32" height="22" viewBox="0 0 32 22" fill="none" xmlns="http://www.w3.org/2000/svg">
<path d="M22.1828 15.897V11H25.2991V15.897H22.1828ZM28.4153 4.89704V2.4363C28.4153 1.76815 28.1096 1.19506 27.4982 0.717037C26.8867 0.239012 26.1537 0 25.2991 0H4.96538C3.66955 0 2.56306 0.358519 1.64591 1.07556C0.73223 1.78988 0.275391 2.65358 0.275391 3.66667V18.3333C0.275391 19.6696 0.824293 20.6148 1.9221 21.1689C3.0199 21.723 4.03433 22 4.96538 22H28.4153C29.2943 22 30.0394 21.761 30.6509 21.283C31.2588 20.8049 31.5628 20.2319 31.5628 19.5637V7.33333C31.5628 6.66518 31.2588 6.0921 30.6509 5.61407C30.0394 5.13605 29.2943 4.89704 28.4153 4.89704ZM4.96538 2.4363H25.2991V4.89704H4.96538C4.54849 4.87803 4.19935 4.74901 3.91795 4.51C3.63655 4.2737 3.49585 3.99259 3.49585 3.66667C3.49585 3.34074 3.63655 3.05963 3.91795 2.82333C4.19935 2.58432 4.54849 2.45531 4.96538 2.4363ZM28.4153 19.5637H5.00186C4.6336 19.5447 4.27925 19.4591 3.93879 19.307C3.59486 19.1549 3.42289 18.8304 3.42289 18.3333V7.10519C3.66955 7.18123 3.91968 7.23827 4.17329 7.2763C4.43037 7.31432 4.6944 7.33333 4.96538 7.33333H28.4153V19.5637Z" fill="#5156BE"/>
</svg>
