<svg width="15" height="14" viewBox="0 0 15 14" fill="none" xmlns="http://www.w3.org/2000/svg">
<path d="M0.68125 3.125C0.4 3.125 0.18125 2.90625 0.18125 2.625V1.375C0.18125 1.125 0.4 0.875 0.68125 0.875H13.6813C13.9313 0.875 14.1813 1.125 14.1813 1.375V2.625C14.1813 2.90625 13.9313 3.125 13.6813 3.125H0.68125ZM0.68125 8.125C0.4 8.125 0.18125 7.90625 0.18125 7.625V6.375C0.18125 6.125 0.4 5.875 0.68125 5.875H13.6813C13.9313 5.875 14.1813 6.125 14.1813 6.375V7.625C14.1813 7.90625 13.9313 8.125 13.6813 8.125H0.68125ZM0.68125 13.125C0.4 13.125 0.18125 12.9062 0.18125 12.625V11.375C0.18125 11.125 0.4 10.875 0.68125 10.875H13.6813C13.9313 10.875 14.1813 11.125 14.1813 11.375V12.625C14.1813 12.9062 13.9313 13.125 13.6813 13.125H0.68125Z" fill="#2A2C33"/>
</svg>
