<svg width="17" height="17" viewBox="0 0 17 17" fill="none" xmlns="http://www.w3.org/2000/svg">
<path d="M15.9682 9.15833C15.8371 10.5768 15.3047 11.9287 14.4334 13.0557C13.562 14.1826 12.3878 15.0382 11.0479 15.5221C9.70811 16.0061 8.25817 16.0984 6.86776 15.7884C5.47736 15.4784 4.20401 14.7788 3.1967 13.7715C2.18939 12.7642 1.4898 11.4908 1.17977 10.1004C0.869742 8.71001 0.96211 7.26007 1.44606 5.92025C1.93002 4.58042 2.78554 3.40614 3.91252 2.53479C5.03951 1.66345 6.39134 1.13109 7.80985 1C6.97936 2.12356 6.57972 3.50787 6.68362 4.90118C6.78753 6.29448 7.38806 7.60422 8.37601 8.59217C9.36396 9.58012 10.6737 10.1807 12.067 10.2846C13.4603 10.3885 14.8446 9.98882 15.9682 9.15833Z" stroke="#313533" stroke-width="1.66667" stroke-linecap="round" stroke-linejoin="round"/>
</svg>
