<svg width="28" height="14" viewBox="0 0 28 14" fill="none" xmlns="http://www.w3.org/2000/svg">
<path d="M3.20006 8.15124C3.36916 8.11968 3.53389 8.10582 3.69425 8.10966C3.85702 8.10998 4.0169 8.12772 4.1739 8.16289L6.8745 4.94186C6.80528 4.80128 6.74672 4.66024 6.69882 4.51875C6.65092 4.37726 6.61147 4.22345 6.58046 4.05732C6.40881 3.13765 6.58599 2.2941 7.11201 1.52665C7.63804 0.759207 8.36088 0.289659 9.28055 0.118005C10.218 -0.0569713 11.0705 0.118552 11.8379 0.644574C12.6054 1.1706 13.0749 1.89344 13.2466 2.81311C13.2969 3.08307 13.3142 3.34847 13.2985 3.6093C13.2832 3.87309 13.2431 4.11851 13.178 4.34556L17.9172 8.22259C17.9756 8.1902 18.0453 8.16031 18.1261 8.13294C18.2075 8.10854 18.2898 8.08858 18.3728 8.07308C18.4974 8.04982 18.6195 8.03778 18.7391 8.03695C18.8587 8.03612 18.9723 8.0364 19.08 8.03779L21.8517 3.98842C21.8115 3.88846 21.7706 3.78405 21.7287 3.67519C21.6864 3.56337 21.6536 3.44516 21.6303 3.32056C21.4941 2.59076 21.6383 1.91606 22.063 1.29648C22.4877 0.676888 23.0649 0.298986 23.7947 0.16277C24.5453 0.0226788 25.2304 0.164972 25.85 0.58965C26.4666 1.01488 26.843 1.5924 26.9792 2.3222C27.1193 3.07276 26.9785 3.75756 26.5568 4.3766C26.1316 4.99322 25.5437 5.37158 24.7931 5.51167C24.6863 5.5316 24.5746 5.54171 24.458 5.54198C24.3384 5.54281 24.2144 5.54447 24.0859 5.54696L21.3143 9.59633C21.3752 9.69241 21.4206 9.79599 21.4505 9.90706C21.484 10.0205 21.5124 10.1396 21.5356 10.2642C21.6718 10.994 21.5276 11.6687 21.1029 12.2883C20.6782 12.9079 20.101 13.2858 19.3712 13.422C18.6414 13.5582 17.9667 13.414 17.3471 12.9893C16.7275 12.5646 16.3496 11.9874 16.2134 11.2576C16.1824 11.0914 16.1697 10.9326 16.1752 10.7812C16.1777 10.6303 16.1859 10.4768 16.1997 10.3207L11.4658 6.44729C11.3044 6.52038 11.1494 6.58616 11.0007 6.64462C10.8495 6.7066 10.6909 6.75309 10.5248 6.7841C10.2518 6.83504 9.97901 6.85373 9.70632 6.84016C9.43362 6.82658 9.17143 6.77882 8.91974 6.69685L8.95089 6.69104L6.25028 9.91207C6.26191 9.97437 6.2791 10.0418 6.30184 10.1143C6.32755 10.1862 6.34622 10.2534 6.35785 10.3157C6.49794 11.0662 6.35565 11.7513 5.93097 12.3709C5.50574 12.9875 4.92822 13.3639 4.19842 13.5001C3.44785 13.6402 2.76306 13.4994 2.14402 13.0777C1.5274 12.6525 1.14904 12.0646 1.00895 11.314C0.872736 10.5842 1.01548 9.90979 1.4372 9.29076C1.86187 8.67117 2.44949 8.29133 3.20006 8.15124Z" fill="#5156BE"/>
</svg>
