<svg width="28" height="15" viewBox="0 0 28 15" fill="none" xmlns="http://www.w3.org/2000/svg">
<path d="M3.20006 9.07519C3.36916 9.04363 3.53389 9.02977 3.69425 9.03361C3.85702 9.03393 4.0169 9.05167 4.1739 9.08684L6.8745 5.86581C6.80528 5.72523 6.74672 5.58419 6.69882 5.4427C6.65092 5.30121 6.61147 5.1474 6.58046 4.98127C6.40881 4.0616 6.58599 3.21805 7.11201 2.4506C7.63804 1.68316 8.36088 1.21361 9.28055 1.04196C10.218 0.866979 11.0705 1.0425 11.8379 1.56852C12.6054 2.09455 13.0749 2.81739 13.2466 3.73706C13.2969 4.00702 13.3142 4.27242 13.2985 4.53325C13.2832 4.79704 13.2431 5.04246 13.178 5.26951L17.9172 9.14654C17.9756 9.11415 18.0453 9.08426 18.1261 9.05689C18.2075 9.03249 18.2898 9.01253 18.3728 8.99703C18.4974 8.97377 18.6195 8.96173 18.7391 8.9609C18.8587 8.96007 18.9723 8.96035 19.08 8.96174L21.8517 4.91237C21.8115 4.81241 21.7706 4.708 21.7287 4.59914C21.6864 4.48732 21.6536 4.36911 21.6303 4.24451C21.4941 3.51471 21.6383 2.84001 22.063 2.22043C22.4877 1.60084 23.0649 1.22294 23.7947 1.08672C24.5453 0.946629 25.2304 1.08892 25.85 1.5136C26.4666 1.93883 26.843 2.51635 26.9792 3.24615C27.1193 3.99671 26.9785 4.68152 26.5568 5.30055C26.1316 5.91717 25.5437 6.29553 24.7931 6.43562C24.6863 6.45555 24.5746 6.46566 24.458 6.46593C24.3384 6.46676 24.2144 6.46842 24.0859 6.47091L21.3143 10.5203C21.3752 10.6164 21.4206 10.7199 21.4505 10.831C21.484 10.9445 21.5124 11.0635 21.5356 11.1881C21.6718 11.9179 21.5276 12.5926 21.1029 13.2122C20.6782 13.8318 20.101 14.2097 19.3712 14.3459C18.6414 14.4821 17.9667 14.3379 17.3471 13.9132C16.7275 13.4886 16.3496 12.9113 16.2134 12.1815C16.1824 12.0154 16.1697 11.8566 16.1752 11.7051C16.1777 11.5542 16.1859 11.4007 16.1997 11.2446L11.4658 7.37124C11.3044 7.44433 11.1494 7.51011 11.0007 7.56857C10.8495 7.63055 10.6909 7.67704 10.5248 7.70805C10.2518 7.75899 9.97901 7.77768 9.70632 7.76411C9.43362 7.75053 9.17143 7.70277 8.91974 7.6208L8.95089 7.61499L6.25028 10.836C6.26191 10.8983 6.2791 10.9657 6.30184 11.0382C6.32755 11.1102 6.34622 11.1773 6.35785 11.2396C6.49794 11.9902 6.35565 12.6752 5.93097 13.2948C5.50574 13.9115 4.92822 14.2879 4.19842 14.4241C3.44785 14.5642 2.76306 14.4234 2.14402 14.0017C1.5274 13.5764 1.14904 12.9885 1.00895 12.238C0.872736 11.5082 1.01548 10.8337 1.4372 10.2147C1.86187 9.59512 2.44949 9.21528 3.20006 9.07519Z" fill="#BBBBBB"/>
<path d="M3.20006 9.07519C3.36916 9.04363 3.53389 9.02977 3.69425 9.03361C3.85702 9.03393 4.0169 9.05167 4.1739 9.08684L6.8745 5.86581C6.80528 5.72523 6.74672 5.58419 6.69882 5.4427C6.65092 5.30121 6.61147 5.1474 6.58046 4.98127C6.40881 4.0616 6.58599 3.21805 7.11201 2.4506C7.63804 1.68316 8.36088 1.21361 9.28055 1.04196C10.218 0.866979 11.0705 1.0425 11.8379 1.56852C12.6054 2.09455 13.0749 2.81739 13.2466 3.73706C13.2969 4.00702 13.3142 4.27242 13.2985 4.53325C13.2832 4.79704 13.2431 5.04246 13.178 5.26951L17.9172 9.14654C17.9756 9.11415 18.0453 9.08426 18.1261 9.05689C18.2075 9.03249 18.2898 9.01253 18.3728 8.99703C18.4974 8.97377 18.6195 8.96173 18.7391 8.9609C18.8587 8.96007 18.9723 8.96035 19.08 8.96174L21.8517 4.91237C21.8115 4.81241 21.7706 4.708 21.7287 4.59914C21.6864 4.48732 21.6536 4.36911 21.6303 4.24451C21.4941 3.51471 21.6383 2.84001 22.063 2.22043C22.4877 1.60084 23.0649 1.22294 23.7947 1.08672C24.5453 0.946629 25.2304 1.08892 25.85 1.5136C26.4666 1.93883 26.843 2.51635 26.9792 3.24615C27.1193 3.99671 26.9785 4.68152 26.5568 5.30055C26.1316 5.91717 25.5437 6.29553 24.7931 6.43562C24.6863 6.45555 24.5746 6.46566 24.458 6.46593C24.3384 6.46676 24.2144 6.46842 24.0859 6.47091L21.3143 10.5203C21.3752 10.6164 21.4206 10.7199 21.4505 10.831C21.484 10.9445 21.5124 11.0635 21.5356 11.1881C21.6718 11.9179 21.5276 12.5926 21.1029 13.2122C20.6782 13.8318 20.101 14.2097 19.3712 14.3459C18.6414 14.4821 17.9667 14.3379 17.3471 13.9132C16.7275 13.4886 16.3496 12.9113 16.2134 12.1815C16.1824 12.0154 16.1697 11.8566 16.1752 11.7051C16.1777 11.5542 16.1859 11.4007 16.1997 11.2446L11.4658 7.37124C11.3044 7.44433 11.1494 7.51011 11.0007 7.56857C10.8495 7.63055 10.6909 7.67704 10.5248 7.70805C10.2518 7.75899 9.97901 7.77768 9.70632 7.76411C9.43362 7.75053 9.17143 7.70277 8.91974 7.6208L8.95089 7.61499L6.25028 10.836C6.26191 10.8983 6.2791 10.9657 6.30184 11.0382C6.32755 11.1102 6.34622 11.1773 6.35785 11.2396C6.49794 11.9902 6.35565 12.6752 5.93097 13.2948C5.50574 13.9115 4.92822 14.2879 4.19842 14.4241C3.44785 14.5642 2.76306 14.4234 2.14402 14.0017C1.5274 13.5764 1.14904 12.9885 1.00895 12.238C0.872736 11.5082 1.01548 10.8337 1.4372 10.2147C1.86187 9.59512 2.44949 9.21528 3.20006 9.07519Z" fill="#FF0000" fill-opacity="0.2"/>
</svg>
