<svg width="14" height="14" viewBox="0 0 14 14" fill="none" xmlns="http://www.w3.org/2000/svg">
<path d="M7.00021 0.516418C6.08318 0.516418 5.21873 0.693455 4.40688 1.04753C3.59355 1.39123 2.8854 1.86531 2.28244 2.46975C1.67799 3.07272 1.20392 3.78086 0.860213 4.5942C0.506139 5.40605 0.329102 6.27049 0.329102 7.18753C0.329102 8.10457 0.506139 8.96901 0.860213 9.78086C1.20392 10.5942 1.67799 11.3023 2.28244 11.9053C2.8854 12.5098 3.59355 12.9838 4.40688 13.3275C5.21873 13.6816 6.08318 13.8586 7.00021 13.8586C7.91725 13.8586 8.78169 13.6816 9.59355 13.3275C10.4069 12.9838 11.115 12.5098 11.718 11.9053C12.3224 11.3023 12.7965 10.5942 13.1402 9.78086C13.4943 8.96901 13.6713 8.10457 13.6713 7.18753C13.6713 6.27049 13.4943 5.40605 13.1402 4.5942C12.7965 3.78086 12.3224 3.07272 11.718 2.46975C11.115 1.86531 10.4069 1.39123 9.59355 1.04753C8.78169 0.693455 7.91725 0.516418 7.00021 0.516418ZM7.00021 12.5164C6.26095 12.5164 5.56836 12.3757 4.92243 12.0942C4.27651 11.8231 3.71132 11.4453 3.22688 10.9609C2.74244 10.4764 2.36466 9.91123 2.09355 9.26531C1.81206 8.61938 1.67132 7.92679 1.67132 7.18753C1.67132 6.44827 1.81206 5.75568 2.09355 5.10975C2.36466 4.46383 2.74244 3.89864 3.22688 3.4142C3.71132 2.92975 4.27651 2.55197 4.92243 2.28086C5.56836 1.99938 6.26095 1.85864 7.00021 1.85864C7.73947 1.85864 8.43206 1.99938 9.07799 2.28086C9.72392 2.55197 10.2891 2.92975 10.7735 3.4142C11.258 3.89864 11.6358 4.46383 11.9069 5.10975C12.1884 5.75568 12.3291 6.44827 12.3291 7.18753C12.3291 7.92679 12.1884 8.61938 11.9069 9.26531C11.6358 9.91123 11.258 10.4764 10.7735 10.9609C10.2891 11.4453 9.72392 11.8231 9.07799 12.0942C8.43206 12.3757 7.73947 12.5164 7.00021 12.5164ZM8.89132 9.07864C8.7654 9.19271 8.63503 9.29642 8.50021 9.38975C8.3654 9.48457 8.21947 9.56827 8.06243 9.64086H8.03132C7.88614 9.71346 7.72466 9.76827 7.54688 9.80531C7.37058 9.84086 7.18836 9.85864 7.00021 9.85864C6.54244 9.85864 6.12021 9.75198 5.73355 9.53864C5.34836 9.32531 5.03651 9.0416 4.79799 8.68753L4.78243 8.67197L3.68688 9.42086C3.83355 9.64012 3.99503 9.83864 4.17132 10.0164C4.3491 10.1927 4.54243 10.3542 4.75132 10.5009H4.76688C4.96392 10.646 5.18244 10.7683 5.42243 10.8675C5.66244 10.9668 5.91206 11.0475 6.17132 11.1098H6.20244C6.31799 11.1305 6.44318 11.1483 6.57799 11.1631C6.71429 11.1794 6.85503 11.1875 7.00021 11.1875C7.1454 11.1875 7.28614 11.1794 7.42244 11.1631C7.55725 11.1483 7.69281 11.1305 7.8291 11.1098H7.81355C8.08318 11.0475 8.33799 10.9668 8.57799 10.8675C8.81799 10.7683 9.04244 10.646 9.25132 10.5009H9.23355C9.33873 10.4268 9.44095 10.3512 9.54021 10.2742C9.63799 10.1957 9.73429 10.1098 9.8291 10.0164C9.92243 9.9216 10.0084 9.82531 10.0869 9.72753C10.1639 9.62827 10.2395 9.52605 10.3135 9.42086L9.21799 8.67197C9.16614 8.74457 9.11206 8.81494 9.05577 8.88309C8.99799 8.95123 8.94318 9.01642 8.89132 9.07864ZM5.67132 6.18753C5.67132 6.46901 5.57281 6.70605 5.37577 6.89864C5.17725 7.09123 4.94244 7.18753 4.67132 7.18753C4.39132 7.18753 4.15429 7.09123 3.96021 6.89864C3.76762 6.70605 3.67132 6.46901 3.67132 6.18753C3.67132 5.90605 3.76762 5.66901 3.96021 5.47642C4.15429 5.28383 4.39132 5.18753 4.67132 5.18753C4.94244 5.18753 5.17725 5.28383 5.37577 5.47642C5.57281 5.66901 5.67132 5.90605 5.67132 6.18753ZM10.3291 6.18753C10.3291 6.45864 10.2298 6.69049 10.0313 6.88309C9.83281 7.07568 9.59873 7.17197 9.3291 7.17197C9.05799 7.17197 8.82318 7.07568 8.62466 6.88309C8.42762 6.69049 8.3291 6.45864 8.3291 6.18753C8.3291 5.90605 8.42762 5.66901 8.62466 5.47642C8.82318 5.28383 9.05799 5.18753 9.3291 5.18753C9.59873 5.18753 9.83281 5.28383 10.0313 5.47642C10.2298 5.66901 10.3291 5.90605 10.3291 6.18753Z" fill="white"/>
</svg>
