<svg width="21" height="22" viewBox="0 0 21 22" fill="none" xmlns="http://www.w3.org/2000/svg">
<path d="M3.86755 14.2645C4.36659 14.2645 4.83994 14.1744 5.28761 13.994C5.73528 13.8137 6.12179 13.5614 6.44714 13.2373L13.3383 17.1708C13.304 17.3073 13.2735 17.4572 13.2465 17.6205C13.2221 17.7813 13.2099 17.9397 13.2099 18.0957C13.2099 18.1128 13.2099 18.1213 13.2099 18.1213C13.2099 18.1213 13.2099 18.1298 13.2099 18.1469C13.2099 19.2095 13.5927 20.1173 14.3584 20.8704C15.1216 21.6235 16.0365 22 17.1031 22C18.1697 22 19.0858 21.6235 19.8515 20.8704C20.6172 20.1173 21 19.2095 21 18.1469C21 17.0672 20.6172 16.1497 19.8515 15.3941C19.0858 14.6411 18.1697 14.2645 17.1031 14.2645C16.5869 14.2645 16.1062 14.3547 15.661 14.5351C15.2133 14.7154 14.8171 14.9677 14.4721 15.2918L7.58466 11.3583C7.61891 11.2388 7.64826 11.106 7.67272 10.9598C7.69963 10.816 7.71309 10.6746 7.71309 10.5357L14.4721 6.65703C14.8171 6.96411 15.2085 7.20782 15.6463 7.38817C16.0842 7.56852 16.5527 7.65869 17.0517 7.65869C18.1183 7.65869 19.0259 7.28581 19.7744 6.54005C20.523 5.79428 20.8973 4.89011 20.8973 3.82752C20.8973 2.76493 20.523 1.86197 19.7744 1.11864C19.0259 0.372881 18.1183 0 17.0517 0C16.0023 0 15.0996 0.372881 14.3437 1.11864C13.5878 1.86197 13.2099 2.76493 13.2099 3.82752C13.2099 3.82752 13.2099 3.83605 13.2099 3.85311C13.2099 4.00908 13.2221 4.1675 13.2465 4.32835C13.2735 4.49164 13.3126 4.65127 13.364 4.80724L13.3383 4.778L7.09296 8.35327C6.73336 7.82198 6.27346 7.39304 5.71326 7.06647C5.15551 6.74233 4.53171 6.58026 3.84187 6.58026C2.77529 6.58026 1.86895 6.9568 1.12284 7.70987C0.374279 8.46294 0 9.37078 0 10.4334C0 11.496 0.374279 12.4001 1.12284 13.1459C1.86895 13.8917 2.77529 14.2645 3.84187 14.2645C3.84187 14.2645 3.84676 14.2645 3.85654 14.2645C3.86388 14.2645 3.86755 14.2645 3.86755 14.2645ZM17.0774 16.4506C17.5251 16.4506 17.9128 16.6127 18.2406 16.9369C18.566 17.2634 18.7286 17.6497 18.7286 18.0957C18.7286 18.5588 18.566 18.9487 18.2406 19.2655C17.9128 19.5824 17.5251 19.7408 17.0774 19.7408C16.6151 19.7408 16.2237 19.5824 15.9032 19.2655C15.5852 18.9487 15.4262 18.5588 15.4262 18.0957C15.4262 17.6497 15.5852 17.2634 15.9032 16.9369C16.2237 16.6127 16.6151 16.4506 17.0774 16.4506ZM17.0774 2.20804C17.5251 2.20804 17.9128 2.36646 18.2406 2.68328C18.566 3.00255 18.7286 3.39249 18.7286 3.85311C18.7286 4.2991 18.566 4.68539 18.2406 5.01196C17.9128 5.3361 17.5251 5.49817 17.0774 5.49817C16.6151 5.49817 16.2237 5.3361 15.9032 5.01196C15.5852 4.68539 15.4262 4.2991 15.4262 3.85311C15.4262 3.39249 15.5852 3.00255 15.9032 2.68328C16.2237 2.36646 16.6151 2.20804 17.0774 2.20804ZM3.86755 8.7883C4.31522 8.7883 4.70295 8.94671 5.03075 9.26354C5.35611 9.58281 5.51878 9.97275 5.51878 10.4334C5.51878 10.8794 5.35611 11.2656 5.03075 11.5922C4.70295 11.9164 4.31522 12.0784 3.86755 12.0784C3.40521 12.0784 3.0138 11.9164 2.69334 11.5922C2.37533 11.2656 2.21632 10.8794 2.21632 10.4334C2.21632 9.97275 2.37533 9.58281 2.69334 9.26354C3.0138 8.94671 3.40521 8.7883 3.86755 8.7883Z" fill="#BBBBBB"/>
</svg>
