<svg width="850" height="917" viewBox="0 0 850 917" fill="none" xmlns="http://www.w3.org/2000/svg">
<path d="M492.784 555.129C492.631 554.67 492.396 554.304 492.079 554.032C491.846 553.828 491.662 553.868 491.526 554.151C491.311 554.61 491.368 554.879 491.696 554.959" stroke="#5653AB" stroke-width="2"/>
<path d="M242.074 377.372C241.887 377.723 241.892 378.063 242.091 378.392C242.261 378.669 242.442 378.675 242.635 378.409C242.844 378.114 242.983 377.757 243.051 377.338" stroke="#5653AB" stroke-width="2"/>
<path d="M318.764 607.574C318.889 606.985 318.708 606.543 318.22 606.248C317.937 606.078 317.733 606.146 317.608 606.452C317.472 606.781 317.639 607.175 318.11 607.634" stroke="#5653AB" stroke-width="2"/>
<path d="M306.996 157.275C393.747 207.434 484.017 259.445 574.755 311.771C581.878 315.879 587.598 321.457 591.916 328.505C592.027 328.689 592.206 328.822 592.414 328.876C592.622 328.93 592.843 328.9 593.03 328.794L607.037 320.746C607.077 320.723 607.112 320.692 607.14 320.656C607.167 320.619 607.187 320.578 607.198 320.533C607.21 320.489 607.212 320.443 607.204 320.397C607.197 320.352 607.181 320.309 607.157 320.27C603.139 313.76 597.931 308.661 591.534 304.972C501.824 253.216 412.841 201.881 324.582 150.969C318.165 147.264 311.688 142.963 304.225 147.893C301.771 149.513 299.264 150.946 296.702 152.193C296.663 152.212 296.63 152.242 296.608 152.28C296.586 152.318 296.576 152.362 296.579 152.405C296.581 152.449 296.597 152.491 296.624 152.526C296.65 152.561 296.687 152.587 296.728 152.601C299.992 153.649 303.415 155.207 306.996 157.275Z" stroke="#5653AB" stroke-width="2"/>
<path d="M596.154 403.046C596.137 386.491 596.168 370.981 596.247 356.516C596.332 341.856 588.359 326.983 576.578 318.213C575.451 317.374 570.586 314.473 561.984 309.51C476.803 260.388 391.803 211.357 306.984 162.416C304.162 160.79 301.547 159.368 299.138 158.15C290.715 153.884 282.631 157.878 281.832 167.405C281.668 169.433 281.583 171.467 281.577 173.507C281.555 191.382 281.549 207.371 281.56 221.473C281.56 221.622 281.6 221.769 281.674 221.897C281.749 222.026 281.856 222.132 281.985 222.204L595.848 403.224C596.052 403.343 596.154 403.284 596.154 403.046Z" stroke="#5653AB" stroke-width="2"/>
<path d="M655.297 230.958C642.947 224.771 628.93 222.783 617.132 230.491C616.469 230.921 616.535 231.142 617.328 231.154C628.701 231.256 640.592 236.601 650.019 243.162C669.305 256.59 684.231 276.451 694.083 298.225C698.503 307.981 701.668 317.956 703.577 328.148C704.671 333.99 705.107 339.766 704.886 345.477C704.883 345.548 704.899 345.619 704.933 345.682C704.966 345.745 705.016 345.797 705.076 345.835C705.137 345.872 705.207 345.892 705.278 345.894C705.349 345.895 705.419 345.877 705.481 345.843L717.313 338.976C717.538 338.847 717.726 338.661 717.857 338.438C717.988 338.214 718.059 337.96 718.061 337.701C718.52 310.284 707.487 283.845 691.023 261.995C681.664 249.579 669.373 238.012 655.297 230.958Z" stroke="#5653AB" stroke-width="2"/>
<path d="M519.064 512.397C519.047 512.941 519.222 513.406 519.591 513.791C519.823 514.041 519.99 514.004 520.092 513.681C520.194 513.341 520.171 512.933 520.024 512.457" stroke="#5653AB" stroke-width="2"/>
<path d="M202.941 296.415C202.979 296.437 203.023 296.449 203.068 296.449C203.113 296.449 203.157 296.437 203.196 296.415L215.172 289.42C215.211 289.398 215.243 289.366 215.266 289.327C215.288 289.288 215.3 289.244 215.3 289.199C215.3 289.155 215.288 289.111 215.266 289.072C215.243 289.033 215.211 289.001 215.172 288.978L194.381 277.004C194.342 276.982 194.298 276.97 194.254 276.97C194.209 276.97 194.165 276.982 194.126 277.004L182.073 283.939C182.034 283.961 182.002 283.993 181.98 284.032C181.957 284.071 181.945 284.115 181.945 284.16C181.945 284.205 181.957 284.249 181.98 284.287C182.002 284.326 182.034 284.358 182.073 284.381L202.941 296.415Z" stroke="#5653AB" stroke-width="2"/>
<path d="M231.138 414.264C231.15 414.322 231.18 414.374 231.225 414.412C231.269 414.45 231.325 414.472 231.383 414.475C231.442 414.478 231.5 414.462 231.548 414.428C231.596 414.394 231.631 414.346 231.648 414.29L239.774 387.596C239.786 387.551 239.786 387.504 239.774 387.46L218.533 292.921C218.524 292.881 218.505 292.843 218.479 292.811C218.453 292.779 218.419 292.753 218.381 292.737C218.343 292.72 218.301 292.713 218.26 292.715C218.218 292.718 218.178 292.73 218.142 292.751L205.664 300.069C205.616 300.096 205.578 300.138 205.555 300.188C205.532 300.239 205.526 300.295 205.536 300.349L231.138 414.264Z" stroke="#5653AB" stroke-width="2"/>
<path d="M284.836 343.624C284.878 343.647 284.925 343.66 284.972 343.66C285.02 343.66 285.067 343.647 285.108 343.624L297.119 336.655C297.161 336.631 297.197 336.597 297.222 336.555C297.246 336.513 297.259 336.465 297.259 336.417C297.259 336.368 297.246 336.321 297.222 336.279C297.197 336.237 297.161 336.202 297.119 336.179L276.268 324.23C276.227 324.206 276.18 324.193 276.132 324.193C276.085 324.193 276.038 324.206 275.996 324.23L263.867 331.165C263.824 331.188 263.789 331.223 263.764 331.264C263.74 331.306 263.727 331.354 263.727 331.403C263.727 331.451 263.74 331.499 263.764 331.541C263.789 331.583 263.824 331.617 263.867 331.641L284.836 343.624Z" stroke="#5653AB" stroke-width="2"/>
<path d="M420.763 424.31C414.439 411.936 405.735 401.613 394.651 393.341C390.707 390.401 386.018 387.387 380.584 384.299C367.25 376.729 353.786 368.967 340.192 361.013C339.916 360.85 339.601 360.763 339.279 360.762C338.956 360.76 338.638 360.844 338.356 361.004L326.872 367.624C326.657 367.743 326.657 367.865 326.872 367.99C340.994 376.047 355.342 384.293 369.916 392.729C392.059 405.537 408.957 426.358 414.499 451.251C415.247 454.622 415.632 457.902 415.655 461.092C415.656 461.14 415.67 461.187 415.695 461.229C415.719 461.27 415.754 461.304 415.796 461.328C415.838 461.352 415.885 461.365 415.934 461.365C415.982 461.366 416.029 461.354 416.071 461.33L428.031 454.489C428.157 454.417 428.261 454.312 428.331 454.185C428.402 454.057 428.436 453.913 428.43 453.766C428.028 443.341 425.472 433.523 420.763 424.31Z" stroke="#5653AB" stroke-width="2"/>
<path d="M472.469 451.888C472.508 451.909 472.552 451.921 472.596 451.921C472.641 451.921 472.685 451.909 472.724 451.888L484.862 444.944C484.903 444.921 484.937 444.888 484.96 444.848C484.984 444.807 484.996 444.762 484.996 444.715C484.996 444.668 484.984 444.622 484.96 444.582C484.937 444.542 484.903 444.508 484.862 444.485L465.303 433.293C465.264 433.271 465.221 433.26 465.176 433.26C465.131 433.26 465.087 433.271 465.048 433.293L452.97 440.261C452.929 440.284 452.895 440.318 452.872 440.358C452.848 440.398 452.836 440.444 452.836 440.491C452.836 440.538 452.848 440.583 452.872 440.624C452.895 440.664 452.929 440.698 452.97 440.72L472.469 451.888Z" stroke="#5653AB" stroke-width="2"/>
<path d="M519.453 565.795C519.474 565.851 519.515 565.898 519.569 565.927C519.622 565.957 519.683 565.966 519.743 565.954C519.802 565.941 519.855 565.908 519.892 565.861C519.929 565.813 519.948 565.753 519.946 565.693L519.878 526.497C519.878 526.465 519.872 526.434 519.861 526.404L488.555 448.098C488.541 448.064 488.52 448.034 488.493 448.009C488.466 447.985 488.434 447.966 488.4 447.955C488.365 447.944 488.328 447.94 488.292 447.944C488.256 447.948 488.221 447.96 488.19 447.979L475.559 455.415C475.507 455.447 475.469 455.496 475.45 455.553C475.431 455.611 475.434 455.673 475.457 455.729L519.453 565.795Z" stroke="#5653AB" stroke-width="2"/>
<path d="M546.372 494.509C546.414 494.533 546.461 494.545 546.508 494.545C546.556 494.545 546.603 494.533 546.644 494.509L558.604 487.565C558.646 487.542 558.682 487.507 558.706 487.466C558.731 487.424 558.744 487.376 558.744 487.327C558.744 487.279 558.731 487.231 558.706 487.189C558.682 487.147 558.646 487.113 558.604 487.089L539.241 475.897C539.199 475.873 539.153 475.86 539.105 475.86C539.057 475.86 539.01 475.873 538.969 475.897L526.848 482.823C526.805 482.846 526.769 482.88 526.743 482.921C526.718 482.963 526.704 483.01 526.703 483.059C526.702 483.107 526.715 483.155 526.738 483.197C526.762 483.24 526.797 483.275 526.839 483.299L546.372 494.509Z" stroke="#5653AB" stroke-width="2"/>
<path d="M311.902 204.901L328.009 214.267C328.283 214.425 328.596 214.505 328.914 214.498C329.232 214.49 329.542 214.396 329.811 214.224C330.367 213.873 330.727 213.425 330.891 212.881C331.276 211.612 330.891 210.649 329.735 209.992L309.666 198.612C309.623 198.586 309.587 198.549 309.562 198.505C309.537 198.46 309.524 198.41 309.525 198.359C309.526 198.308 309.54 198.258 309.567 198.215C309.593 198.171 309.63 198.135 309.675 198.111L317.707 193.666C319.005 192.946 319.481 191.867 319.135 190.428C318.92 189.555 318.028 189.196 316.458 189.349C316.167 189.377 315.885 189.466 315.633 189.612L303.963 196.36C302.58 197.159 302.288 198.247 303.087 199.623L314.86 220.054C315.597 221.335 316.662 221.743 318.056 221.278C318.294 221.199 318.501 221.057 318.676 220.853C319.39 220.003 319.47 219.097 318.914 218.133L311.485 205.309C311.1 204.652 311.239 204.516 311.902 204.901Z" stroke="#5653AB" stroke-width="2"/>
<path d="M353.912 224.669C352.577 238.48 361.638 254.474 373.428 261.273C394.219 273.25 414.701 285.066 434.874 296.721C436.54 297.684 438.15 298.474 439.702 299.092C449.341 302.908 456.668 296.576 457.314 287.015C458.258 273.129 449.239 258.154 437.322 251.253C415.557 238.658 394.817 226.701 375.102 215.38C370.852 212.95 365.2 211.658 360.669 213.868C356.776 215.771 354.311 220.48 353.912 224.669Z" stroke="#5653AB" stroke-width="2"/>
<path d="M497.683 312.655C497.66 312.338 497.785 312.255 498.057 312.408L506.608 317.083C507.401 317.519 508.146 317.448 508.843 316.87C509.11 316.655 509.305 316.403 509.43 316.114C509.98 314.879 509.671 313.924 508.503 313.25L498.397 307.36C498.17 307.229 497.982 307.04 497.852 306.811C497.722 306.583 497.655 306.323 497.657 306.06L497.819 294.23C497.824 293.899 497.735 293.573 497.564 293.29C497.393 293.008 497.145 292.779 496.85 292.632C496.402 292.405 495.946 292.312 495.481 292.352C493.974 292.499 493.229 293.329 493.246 294.842L493.339 303.604C493.345 304.182 493.096 304.326 492.591 304.037L484.491 299.337C484.176 299.154 483.813 299.068 483.449 299.091C483.084 299.114 482.734 299.244 482.442 299.465C481.978 299.816 481.675 300.227 481.533 300.697C481.176 301.87 481.53 302.76 482.595 303.366L492.974 309.281C493.178 309.4 493.28 309.575 493.28 309.808L493.297 322.088C493.299 322.671 493.531 323.228 493.942 323.639C494.353 324.05 494.91 324.281 495.49 324.281C495.592 324.281 495.691 324.281 495.787 324.281C496.926 324.258 497.544 323.677 497.64 322.539C497.901 319.241 497.915 315.947 497.683 312.655Z" stroke="#5653AB" stroke-width="2"/>
<path d="M540.349 326.414C540.353 326.47 540.343 326.527 540.318 326.578C540.294 326.629 540.257 326.672 540.211 326.703C540.165 326.735 540.111 326.753 540.056 326.756C540.001 326.759 539.947 326.746 539.898 326.72C538.657 326.052 537.453 325.312 536.286 324.502C534.637 323.346 532.291 323.712 532.291 326.117C532.285 331.879 532.294 338.052 532.316 344.635C532.317 344.979 532.407 345.316 532.579 345.613C532.75 345.91 532.997 346.156 533.294 346.326L555.283 359.015C555.609 359.202 555.979 359.301 556.356 359.3C556.732 359.299 557.101 359.199 557.425 359.01C557.75 358.821 558.018 358.55 558.204 358.224C558.389 357.898 558.484 357.528 558.479 357.154L558.445 352.462C558.445 352.393 558.463 352.325 558.496 352.265C558.53 352.204 558.578 352.153 558.636 352.117C558.695 352.081 558.761 352.061 558.829 352.059C558.897 352.057 558.964 352.073 559.023 352.105C560.213 352.746 561.463 353.474 562.772 354.29C564.319 355.25 566.486 354.698 566.503 352.598C566.532 346.139 566.532 340.015 566.503 334.224C566.503 333.855 566.405 333.492 566.219 333.171C566.032 332.85 565.764 332.583 565.441 332.397C558.306 328.255 551.251 324.154 544.276 320.091C543.179 319.445 541.148 318.986 540.604 320.567C540 322.284 540.196 324.629 540.349 326.414Z" stroke="#5653AB" stroke-width="2"/>
<path d="M561.677 348.613C561.721 348.638 561.771 348.651 561.821 348.651C561.871 348.652 561.921 348.639 561.965 348.614C562.009 348.589 562.045 348.553 562.071 348.509C562.096 348.466 562.11 348.417 562.111 348.366L561.983 335.61C561.983 335.56 561.969 335.511 561.944 335.467C561.918 335.424 561.882 335.388 561.839 335.363L545.043 325.717C544.999 325.692 544.948 325.679 544.897 325.679C544.846 325.679 544.796 325.693 544.752 325.719C544.708 325.745 544.671 325.782 544.646 325.826C544.621 325.871 544.609 325.921 544.609 325.972L544.694 329.193C544.694 329.243 544.707 329.291 544.73 329.334C544.754 329.377 544.789 329.414 544.83 329.44L558.218 337.301C558.26 337.327 558.294 337.363 558.318 337.407C558.342 337.45 558.354 337.498 558.354 337.548L558.524 346.582C558.524 346.631 558.536 346.679 558.56 346.722C558.584 346.766 558.618 346.802 558.66 346.828L561.677 348.613Z" stroke="#5653AB" stroke-width="2"/>
<path d="M537.059 330.111C537.014 330.085 536.964 330.072 536.913 330.072C536.862 330.072 536.812 330.086 536.767 330.112C536.723 330.138 536.687 330.175 536.662 330.22C536.637 330.264 536.624 330.315 536.625 330.366L536.821 343.037C536.821 343.087 536.835 343.136 536.86 343.18C536.886 343.223 536.922 343.259 536.965 343.284L553.77 353.049C553.814 353.074 553.864 353.088 553.915 353.087C553.966 353.087 554.017 353.074 554.061 353.048C554.105 353.022 554.141 352.985 554.166 352.94C554.191 352.895 554.204 352.845 554.203 352.794L554.008 340.088C554.007 340.038 553.993 339.989 553.968 339.946C553.943 339.903 553.906 339.867 553.863 339.842L537.059 330.111Z" stroke="#5653AB" stroke-width="2"/>
<path d="M351.509 449.712C358.096 453.46 364.616 457.208 371.254 461.032C375.895 463.709 382.865 465.766 385.73 459.528C386.285 458.31 386.625 457.117 386.75 455.95C386.784 455.633 386.662 455.392 386.384 455.227L365.041 442.981C364.044 442.409 363.046 442.409 362.049 442.981L351.509 449.057C351.452 449.092 351.404 449.141 351.371 449.199C351.338 449.257 351.32 449.323 351.32 449.389C351.32 449.455 351.338 449.52 351.371 449.577C351.404 449.633 351.452 449.68 351.509 449.712Z" stroke="#5653AB" stroke-width="2"/>
<path d="M328.301 612.461C326.745 591.622 307.382 576.75 289.345 568.634C269.591 559.735 248.834 556.107 227.244 555.427C226.768 555.41 226.536 555.642 226.547 556.124L226.641 558.911C226.646 559.211 226.799 559.362 227.1 559.362C238.314 559.396 249.438 560.764 260.471 563.466C279.528 568.141 298.619 576.818 310.527 592.073C313.332 595.659 316.834 598.523 319.937 601.727C322.815 604.696 325.416 608.33 327.74 612.631C328.187 613.458 328.374 613.401 328.301 612.461Z" stroke="#5653AB" stroke-width="2"/>
<path d="M258.094 585.622C266.755 589.106 274.592 594.222 279.48 601.65C280.698 603.503 282.152 605.112 283.84 606.477C287.206 609.197 290.453 612.622 292.876 616.293C293.193 616.775 293.357 616.727 293.369 616.149C293.488 608.409 290.555 601.585 284.571 595.676C270.198 581.491 246.636 576.188 226.916 575.67C226.808 575.67 226.751 575.724 226.746 575.831L226.61 579.358C226.604 579.506 226.675 579.579 226.822 579.579C237.952 579.698 248.375 581.712 258.094 585.622Z" stroke="#5653AB" stroke-width="2"/>
<path d="M226.916 602.933C232.059 602.406 240.763 603.732 242.675 609.622C242.868 610.217 243.123 610.775 243.44 611.296C243.599 611.562 243.82 611.755 244.103 611.874C249.288 614.083 253.997 616.344 257.882 620.474C258.182 620.797 258.338 620.738 258.349 620.296C258.417 617.843 258.327 615.571 258.077 613.48C256.615 601.14 237.295 596.432 226.916 595.998C226.786 595.993 226.721 596.052 226.721 596.177L226.695 602.738C226.695 602.885 226.769 602.95 226.916 602.933Z" stroke="#5653AB" stroke-width="2"/>
<path d="M220.483 630.29C220.484 630.34 220.498 630.389 220.525 630.431C220.552 630.474 220.591 630.507 220.636 630.528L226.926 633.307C226.966 633.324 227.009 633.331 227.052 633.327C227.095 633.323 227.136 633.309 227.172 633.285C227.208 633.262 227.238 633.23 227.259 633.192C227.28 633.154 227.291 633.112 227.292 633.069L227.351 620.746C227.352 620.689 227.334 620.634 227.3 620.588C227.267 620.542 227.219 620.508 227.164 620.491L220.645 618.503C220.605 618.49 220.562 618.488 220.521 618.496C220.479 618.503 220.44 618.521 220.407 618.546C220.373 618.572 220.347 618.606 220.329 618.644C220.311 618.682 220.303 618.724 220.305 618.766L220.483 630.29Z" stroke="#5653AB" stroke-width="2"/>
<path d="M663.688 612.146C680.153 626.61 677.934 652.132 659.294 663.494C652.839 667.432 645.572 668.795 637.491 667.582C635.502 667.285 633.692 666.392 631.788 665.866C631.266 665.724 631.212 665.826 631.626 666.172C633.91 668.092 636.145 669.506 638.333 670.412C651.258 675.761 662.923 674.021 673.327 665.194C680.714 658.922 684.76 648.724 683.969 638.679C683.255 629.568 679.087 621.902 671.466 615.681C669.29 613.897 666.646 612.664 664.13 611.474C662.39 610.653 662.243 610.877 663.688 612.146Z" stroke="#5653AB" stroke-width="2"/>
<path d="M492.954 158.661C492.852 158.685 492.756 158.733 492.676 158.8C492.595 158.868 492.532 158.954 492.49 159.051C492.449 159.147 492.431 159.252 492.438 159.357C492.444 159.462 492.476 159.564 492.529 159.655C495.572 164.783 498.476 169.8 501.242 174.706C501.848 175.777 501.686 176.717 500.757 177.528C500.615 177.652 500.454 177.743 500.273 177.8C499.213 178.123 498.405 177.802 497.85 176.839L489.104 161.703C489.024 161.566 488.893 161.466 488.739 161.424C488.585 161.383 488.42 161.404 488.279 161.482L480.536 165.885C479.476 166.491 478.583 166.304 477.858 165.324C477.739 165.165 477.648 164.984 477.586 164.78C477.269 163.8 477.555 163.049 478.445 162.528L485.729 158.244C486.006 158.081 486.206 157.816 486.287 157.505C486.369 157.195 486.324 156.865 486.163 156.587L477.884 142.275C477.294 141.256 477.399 140.312 478.198 139.445C478.481 139.134 478.861 138.981 479.337 138.986C480.176 138.992 480.808 139.36 481.233 140.091L489.826 154.896C489.942 155.096 490.132 155.242 490.355 155.302C490.577 155.363 490.815 155.333 491.016 155.219L498.59 150.885C499.462 150.38 500.264 150.477 500.995 151.173C501.154 151.326 501.278 151.502 501.369 151.7C501.862 152.817 501.582 153.683 500.528 154.301C498.068 155.751 495.683 157.131 493.371 158.44C493.127 158.581 492.988 158.655 492.954 158.661Z" fill="#124A57"/>
<path d="M492.78 555.129C492.626 554.67 492.391 554.305 492.074 554.033C491.842 553.829 491.658 553.868 491.522 554.152C491.306 554.611 491.363 554.88 491.692 554.959C491.697 555.038 491.672 555.104 491.615 555.155C491.564 555.2 491.539 555.257 491.539 555.325L491.658 584.271C491.66 584.724 491.541 585.171 491.314 585.563C491.087 585.956 490.76 586.281 490.366 586.506L473.425 596.186C473.155 596.339 472.852 596.419 472.543 596.419C472.234 596.419 471.932 596.339 471.666 596.186L447.39 582.214C446.996 581.986 446.67 581.659 446.443 581.265C446.217 580.871 446.097 580.425 446.098 579.97L446.089 517.548C446.089 517.118 445.902 516.795 445.528 516.579L403.708 492.486C403.534 492.386 403.34 492.328 403.14 492.318C402.941 492.308 402.742 492.345 402.561 492.426C398.634 494.143 393.508 494.619 389.513 493.973C381.285 492.639 373.32 488.993 366.291 484.676C366.225 484.634 366.149 484.612 366.071 484.61C365.993 484.608 365.916 484.628 365.848 484.666C365.781 484.704 365.724 484.76 365.686 484.827C365.647 484.895 365.627 484.972 365.628 485.05L365.62 511.761C365.62 512.156 365.515 512.544 365.317 512.887C365.119 513.23 364.833 513.516 364.489 513.715L347.387 523.531C347.125 523.679 346.83 523.755 346.53 523.754C346.231 523.752 345.937 523.673 345.678 523.523L321.224 509.432C320.88 509.233 320.595 508.946 320.396 508.602C320.198 508.257 320.093 507.866 320.093 507.469L320.085 444.673C320.085 444.541 320.05 444.411 319.983 444.296C319.916 444.181 319.819 444.085 319.702 444.018C313.526 440.489 307.224 436.828 300.798 433.038C298.469 431.667 296.186 429.868 293.947 427.641C287.765 421.488 283.342 414.786 280.679 407.534C279.999 405.675 279.327 405.678 278.664 407.542L262.565 452.78C262.319 453.476 261.83 454.061 261.188 454.429L244.647 463.998C243.945 464.401 243.242 464.401 242.539 463.998L217.77 449.789C217.456 449.609 217.181 449.367 216.962 449.078C216.743 448.789 216.584 448.458 216.495 448.106C204.114 399.052 191.709 349.828 179.282 300.434C178.109 295.777 176.902 291.043 175.661 286.233C175.381 285.145 174.879 283.25 176.12 282.536C182.104 279.097 187.907 275.749 193.528 272.491C193.748 272.364 193.997 272.297 194.251 272.297C194.505 272.297 194.754 272.364 194.973 272.491L220.881 287.431C221.152 287.587 221.388 287.797 221.574 288.049C221.76 288.3 221.891 288.588 221.961 288.893L242.072 377.372C241.885 377.723 241.891 378.063 242.089 378.392C242.259 378.67 242.44 378.675 242.633 378.409C242.843 378.114 242.981 377.757 243.049 377.338L257.21 330.74C257.331 330.347 257.595 330.013 257.95 329.805C263.821 326.434 269.181 323.329 274.032 320.491C274.941 319.964 275.757 319.624 276.803 319.531C277.166 319.502 277.347 319.304 277.347 318.936C277.353 269.208 277.367 219.482 277.389 169.76C277.389 163.598 279.701 157.148 285.295 153.978C291.755 150.312 297.823 146.816 303.501 143.49C310.038 139.649 316.932 141.748 323.035 145.267C409.191 194.949 495.202 244.559 581.069 294.094C581.664 294.44 582.296 294.675 582.965 294.8C583.435 294.885 583.622 294.692 583.526 294.222C581.582 284.89 581.097 275.72 582.072 266.712C582.826 259.794 584.832 253.457 588.09 247.7C591.014 242.533 594.785 238.621 599.404 235.964C603.546 233.579 607.855 231.046 612.332 228.366C617.409 225.318 621.589 223.329 624.87 222.4C629.386 221.114 634.319 220.853 639.668 221.618C656.88 224.074 673.32 235.879 685.058 248.525C699.31 263.873 709.782 281.443 716.474 301.233C717.755 305.018 718.882 309.091 719.857 313.454C722.158 323.754 722.812 333.655 721.82 343.157C721.588 345.378 721.169 347.706 720.562 350.143C717.74 361.59 712.045 370.191 702.024 375.63C697.978 377.828 694.006 380.123 690.107 382.514C685.874 385.114 682.091 386.859 678.759 387.749C671.025 389.814 662.618 388.871 654.943 386.228C650.511 384.704 646.267 382.766 642.21 380.415C634.219 375.774 627.091 370.157 620.824 363.562C619.656 362.332 619.073 362.565 619.073 364.259C619.05 431.443 619.036 498.763 619.03 566.22C619.03 567.058 618.956 567.925 618.809 568.82C618.645 569.767 618.455 570.696 618.24 571.608C616.931 577.183 613.59 580.276 608.456 583.174C603.005 586.245 597.754 589.242 592.706 592.166C591.651 592.772 590.564 593.24 589.442 593.568C587.305 594.191 585.058 594.308 582.701 593.917C580.44 593.543 578.394 592.894 576.564 591.971C573.283 590.316 569.968 588.466 566.619 586.421C566.506 586.351 566.376 586.313 566.243 586.311C566.11 586.308 565.979 586.341 565.863 586.406C565.747 586.471 565.65 586.565 565.583 586.68C565.515 586.795 565.48 586.925 565.48 587.058L565.505 626.823C565.506 627.27 565.388 627.71 565.164 628.098C564.94 628.486 564.618 628.808 564.23 629.033L547.613 638.662C547.259 638.866 546.857 638.974 546.447 638.974C546.036 638.974 545.633 638.866 545.276 638.662L521.152 624.75C520.679 624.475 520.311 624.047 520.107 623.534L492.78 555.129ZM306.995 157.275C393.746 207.434 484.016 259.445 574.754 311.771C581.876 315.879 587.597 321.457 591.915 328.505C592.026 328.689 592.205 328.822 592.413 328.876C592.621 328.93 592.842 328.901 593.029 328.794L607.036 320.746C607.076 320.723 607.111 320.693 607.139 320.656C607.166 320.62 607.186 320.578 607.197 320.533C607.209 320.489 607.211 320.443 607.203 320.397C607.196 320.352 607.18 320.309 607.155 320.27C603.138 313.76 597.93 308.661 591.533 304.973C501.823 253.216 412.84 201.882 324.581 150.969C318.164 147.264 311.687 142.964 304.224 147.893C301.77 149.513 299.263 150.947 296.701 152.193C296.662 152.212 296.629 152.243 296.607 152.28C296.585 152.318 296.575 152.362 296.578 152.406C296.58 152.449 296.596 152.491 296.623 152.526C296.649 152.561 296.686 152.587 296.727 152.601C299.991 153.649 303.414 155.207 306.995 157.275ZM596.148 403.046C596.131 386.491 596.162 370.981 596.242 356.517C596.327 341.856 588.354 326.984 576.573 318.213C575.445 317.375 570.58 314.474 561.978 309.511C476.797 260.389 391.797 211.357 306.978 162.417C304.156 160.791 301.541 159.369 299.132 158.151C290.709 153.884 282.625 157.879 281.826 167.406C281.662 169.434 281.577 171.468 281.571 173.508C281.549 191.383 281.543 207.372 281.554 221.474C281.554 221.623 281.594 221.769 281.669 221.898C281.743 222.026 281.851 222.132 281.979 222.205L595.842 403.225C596.046 403.344 596.148 403.284 596.148 403.046ZM655.291 230.958C642.94 224.771 628.924 222.782 617.126 230.491C616.463 230.921 616.528 231.142 617.322 231.154C628.695 231.256 640.586 236.601 650.012 243.162C669.299 256.59 684.225 276.451 694.077 298.225C698.497 307.981 701.661 317.956 703.571 328.148C704.665 333.99 705.101 339.766 704.88 345.477C704.877 345.548 704.893 345.619 704.926 345.682C704.96 345.744 705.009 345.797 705.07 345.835C705.131 345.872 705.2 345.892 705.271 345.894C705.343 345.895 705.413 345.877 705.475 345.842L717.307 338.975C717.532 338.847 717.719 338.661 717.851 338.438C717.982 338.214 718.052 337.96 718.055 337.701C718.514 310.284 707.481 283.845 691.017 261.995C681.658 249.579 669.367 238.012 655.291 230.958ZM519.061 512.398C519.044 512.942 519.22 513.407 519.589 513.792C519.821 514.041 519.988 514.004 520.09 513.681C520.192 513.341 520.169 512.933 520.022 512.458L520.005 483.333C520.005 482.387 520.413 481.681 521.229 481.217L537.864 471.656C538.225 471.447 538.636 471.337 539.053 471.337C539.471 471.337 539.882 471.447 540.244 471.656L564.63 485.704C564.896 485.857 565.117 486.077 565.271 486.343C565.425 486.608 565.506 486.91 565.505 487.217L565.497 580.506C565.497 580.697 565.547 580.885 565.642 581.051C565.738 581.216 565.875 581.354 566.041 581.449C569.639 583.557 573.156 585.565 576.59 587.475C582.395 590.713 589.646 591.852 593.879 585.563C595.426 583.268 596.335 579.571 596.335 576.877C596.38 523.126 596.397 471.058 596.386 420.673C596.386 416.661 596.338 412.715 596.242 408.834C596.236 408.534 596.103 408.31 595.842 408.163L282.234 227.27C281.679 226.952 281.401 227.114 281.401 227.754L281.393 320.771C281.393 321.255 281.521 321.73 281.762 322.15C282.004 322.569 282.351 322.917 282.77 323.16L303.145 334.888C303.459 335.07 303.7 335.356 303.826 335.696C303.952 336.036 303.954 336.408 303.833 336.749C297.129 355.695 290.088 375.471 282.71 396.078C282.472 396.752 282.353 397.435 282.353 398.126C282.359 400.403 283.065 403.202 284.47 406.522C287.745 414.284 292.168 420.695 297.738 425.755C299.566 427.42 301.75 429.052 303.875 430.259C309.208 433.268 314.348 436.231 319.294 439.149C319.375 439.195 319.466 439.219 319.559 439.219C319.651 439.219 319.742 439.194 319.823 439.148C319.903 439.101 319.969 439.034 320.015 438.954C320.061 438.874 320.085 438.782 320.085 438.69L320.102 368.041C320.102 367.123 320.499 366.437 321.292 365.984L338.504 356.092C338.724 355.965 338.973 355.898 339.227 355.898C339.481 355.898 339.73 355.965 339.949 356.092C354.518 364.556 369.008 372.91 383.418 381.154C389.391 384.565 394.154 387.627 397.707 390.341C407.93 398.143 416.186 407.588 422.476 418.675C428.749 429.746 432.143 441.375 432.659 453.562C432.761 456.021 432.696 458.415 432.464 460.744C432.208 463.276 431.769 465.693 431.146 467.993C430.302 471.103 429.027 473.823 427.321 476.152C425.542 478.576 423.743 480.31 421.924 481.353C417.09 484.112 412.545 486.738 408.29 489.231C408.184 489.293 408.097 489.381 408.036 489.488C407.976 489.594 407.945 489.714 407.945 489.837C407.946 489.959 407.979 490.079 408.041 490.184C408.103 490.29 408.192 490.377 408.298 490.438L444.908 511.582C445.027 511.65 445.163 511.686 445.3 511.686C445.438 511.685 445.573 511.649 445.693 511.58C445.812 511.512 445.912 511.413 445.981 511.294C446.051 511.175 446.088 511.04 446.089 510.902L446.098 440.5C446.098 440.171 446.184 439.848 446.348 439.563C446.512 439.279 446.748 439.042 447.033 438.877L464.236 428.865C464.513 428.703 464.828 428.617 465.149 428.617C465.47 428.617 465.786 428.703 466.064 428.865C473.759 433.324 481.747 437.916 490.026 442.642C491.453 443.457 491.564 444.307 492.151 445.777C500.809 467.449 509.471 489.118 518.135 510.783C518.152 510.823 518.214 511.103 518.322 511.625C518.407 512.016 518.653 512.273 519.061 512.398ZM587.461 293.355L588.294 297.868C588.356 298.219 588.543 298.48 588.855 298.65C592.366 300.604 596.259 302.567 599.302 305.134C608.918 313.253 615.222 323.514 618.214 335.916C618.48 337.021 618.684 338.185 618.826 339.409C619.421 344.636 619.183 350.304 619.141 355.565C619.135 355.882 619.24 356.16 619.455 356.398C629.145 367.242 641.249 376.845 654.696 381.936C660.603 384.171 666.724 385.182 672.903 384.655C681.567 383.913 688.416 379.905 693.448 372.63C696.474 368.25 698.545 363.052 699.661 357.035C700.834 350.729 701.134 344.409 700.562 338.075C699.684 328.222 697.596 318.803 694.298 309.817C686.438 288.395 674.597 270.312 658.776 255.57C649.919 247.321 640.45 241.377 630.369 237.74C625.025 235.808 619.166 235.088 612.791 235.581C601.061 236.491 592.391 245.287 588.643 256.004C587.413 259.522 586.611 262.907 586.237 266.159C585.24 274.771 585.549 283.579 587.164 292.582C587.186 292.701 587.226 292.808 587.283 292.904C587.373 293.046 587.433 293.196 587.461 293.355ZM202.938 296.414C202.977 296.437 203.021 296.449 203.065 296.449C203.11 296.449 203.154 296.437 203.193 296.414L215.169 289.42C215.208 289.398 215.241 289.365 215.263 289.327C215.285 289.288 215.297 289.244 215.297 289.199C215.297 289.154 215.285 289.11 215.263 289.071C215.241 289.033 215.208 289 215.169 288.978L194.378 277.004C194.34 276.981 194.296 276.969 194.251 276.969C194.206 276.969 194.162 276.981 194.123 277.004L182.07 283.938C182.032 283.961 181.999 283.993 181.977 284.032C181.955 284.071 181.943 284.115 181.943 284.159C181.943 284.204 181.955 284.248 181.977 284.287C181.999 284.326 182.032 284.358 182.07 284.38L202.938 296.414ZM180.668 289.446L220.014 445.726C220.088 446.015 220.244 446.253 220.482 446.44C221.23 447.035 222.179 447.659 223.329 448.31C227.919 450.911 233.728 454.259 240.754 458.355C241.225 458.633 241.664 458.806 242.072 458.874C242.213 458.897 242.358 458.872 242.48 458.802C242.603 458.732 242.696 458.622 242.743 458.491L282.056 348.06C282.15 347.801 282.148 347.516 282.052 347.257C281.955 346.997 281.77 346.779 281.529 346.641L261.418 335.041C260.681 334.621 260.191 334.817 259.947 335.627C251.668 362.834 243.381 390.148 235.085 417.571C234.32 420.095 233.801 422.797 233.206 425.364C233.121 425.732 232.946 426.066 232.679 426.367C231.948 427.188 230.974 427.146 229.755 426.239C229.306 425.907 228.964 425.449 228.769 424.922C228.577 424.406 228.441 423.792 228.361 423.078C228.05 420.398 227.577 417.658 226.942 414.86C218.907 379.347 210.684 342.678 202.275 304.854C201.924 303.278 201.518 301.763 201.059 300.307C201.014 300.159 200.94 300.032 200.838 299.924C200.731 299.805 200.598 299.749 200.439 299.754C200.28 299.76 200.13 299.72 199.988 299.635C194.265 296.281 188.499 292.933 182.691 289.59C182.175 289.295 181.66 289.086 181.144 288.961C180.719 288.859 180.56 289.021 180.668 289.446ZM231.132 414.265C231.144 414.322 231.175 414.374 231.219 414.412C231.263 414.45 231.319 414.473 231.378 414.475C231.436 414.478 231.494 414.462 231.542 414.428C231.59 414.395 231.625 414.346 231.642 414.29L239.768 387.596C239.78 387.551 239.78 387.505 239.768 387.46L218.527 292.921C218.518 292.881 218.5 292.843 218.473 292.811C218.447 292.779 218.413 292.753 218.375 292.737C218.337 292.72 218.295 292.713 218.254 292.716C218.212 292.718 218.172 292.73 218.136 292.752L205.658 300.069C205.61 300.096 205.572 300.138 205.549 300.188C205.526 300.239 205.52 300.295 205.53 300.349L231.132 414.265ZM284.835 343.624C284.877 343.648 284.924 343.661 284.971 343.661C285.019 343.661 285.066 343.648 285.107 343.624L297.118 336.655C297.16 336.632 297.196 336.597 297.221 336.555C297.245 336.514 297.258 336.466 297.258 336.417C297.258 336.369 297.245 336.321 297.221 336.279C297.196 336.237 297.16 336.203 297.118 336.179L276.267 324.23C276.226 324.206 276.179 324.194 276.131 324.194C276.084 324.194 276.037 324.206 275.995 324.23L263.866 331.165C263.823 331.189 263.788 331.223 263.763 331.265C263.739 331.307 263.726 331.355 263.726 331.403C263.726 331.452 263.739 331.499 263.763 331.541C263.788 331.583 263.823 331.618 263.866 331.641L284.835 343.624ZM420.759 424.31C414.435 411.936 405.731 401.613 394.647 393.341C390.703 390.401 386.014 387.386 380.579 384.299C367.246 376.729 353.782 368.967 340.187 361.012C339.912 360.85 339.596 360.763 339.274 360.762C338.952 360.76 338.633 360.844 338.351 361.004L326.868 367.624C326.653 367.743 326.653 367.865 326.868 367.99C340.989 376.046 355.337 384.293 369.912 392.729C392.054 405.537 408.953 426.358 414.495 451.251C415.243 454.622 415.628 457.902 415.65 461.092C415.652 461.14 415.665 461.187 415.69 461.229C415.715 461.27 415.75 461.304 415.792 461.328C415.834 461.352 415.881 461.365 415.929 461.365C415.977 461.365 416.025 461.353 416.067 461.33L428.027 454.489C428.152 454.417 428.256 454.312 428.327 454.184C428.397 454.057 428.432 453.912 428.426 453.766C428.024 443.341 425.468 433.522 420.759 424.31ZM347.591 469.259C355.213 473.605 362.984 478.081 370.906 482.687C375.247 485.203 379.681 487.183 384.209 488.627C388.006 489.834 391.794 490.305 395.574 490.038C399.342 489.772 402.569 488.324 405.255 485.695C407.981 483.033 409.791 479.523 410.687 475.166C412.075 468.378 412.004 460.959 410.474 452.908C409.749 449.089 408.89 445.874 407.899 443.262C400.26 423.16 387.164 407.712 368.611 396.919C353.997 388.415 339.408 379.993 324.845 371.653C324.785 371.618 324.718 371.6 324.649 371.6C324.58 371.6 324.513 371.618 324.453 371.653C324.394 371.687 324.345 371.737 324.31 371.797C324.276 371.856 324.258 371.924 324.258 371.993L324.267 506.296C324.267 506.568 324.392 506.755 324.641 506.857C325.219 507.095 325.786 507.373 326.341 507.69C331.515 510.647 336.615 513.605 341.641 516.562C342.355 516.982 343.154 517.307 344.038 517.54C344.098 517.555 344.161 517.557 344.221 517.544C344.282 517.532 344.339 517.506 344.388 517.468C344.437 517.431 344.477 517.382 344.505 517.327C344.533 517.272 344.547 517.211 344.548 517.149V471.027C344.547 470.67 344.64 470.32 344.817 470.01C344.995 469.701 345.25 469.444 345.559 469.264C345.867 469.085 346.218 468.99 346.574 468.989C346.931 468.989 347.282 469.082 347.591 469.259ZM472.465 451.888C472.504 451.91 472.547 451.921 472.592 451.921C472.637 451.921 472.68 451.91 472.72 451.888L484.857 444.945C484.898 444.922 484.932 444.888 484.956 444.848C484.979 444.808 484.992 444.762 484.992 444.715C484.992 444.668 484.979 444.623 484.956 444.582C484.932 444.542 484.898 444.509 484.857 444.486L465.299 433.293C465.26 433.271 465.216 433.26 465.172 433.26C465.127 433.26 465.083 433.271 465.044 433.293L452.966 440.262C452.925 440.285 452.891 440.318 452.867 440.358C452.844 440.399 452.831 440.445 452.831 440.491C452.831 440.538 452.844 440.584 452.867 440.624C452.891 440.664 452.925 440.698 452.966 440.721L472.465 451.888ZM524.059 621.758L543.559 632.993C543.645 633.042 543.743 633.068 543.842 633.067C543.941 633.067 544.039 633.04 544.125 632.99C544.211 632.94 544.282 632.869 544.332 632.783C544.382 632.697 544.408 632.6 544.408 632.5V498.35C544.408 497.999 544.233 497.812 543.882 497.789C543.609 497.772 543.357 497.695 543.125 497.56C537.22 494.109 531.115 490.591 524.807 487.004C524.728 486.959 524.639 486.936 524.548 486.936C524.457 486.936 524.368 486.959 524.289 487.004C524.211 487.049 524.146 487.113 524.101 487.191C524.056 487.268 524.033 487.357 524.034 487.446L524.059 577.242C524.059 577.704 523.9 578.15 523.608 578.507C523.317 578.863 522.912 579.107 522.461 579.197C520.804 579.52 519.945 578.381 519.402 577.013C503.308 536.815 487.223 496.619 471.147 456.426C470.977 456.001 470.694 455.676 470.297 455.449C464.432 452.151 458.442 448.707 452.328 445.115C451.784 444.792 451.217 444.579 450.628 444.477C450.299 444.421 450.135 444.559 450.135 444.894V578.687C450.135 578.948 450.246 579.143 450.467 579.274L469.787 590.466C469.86 590.508 469.943 590.529 470.027 590.529C470.111 590.528 470.194 590.506 470.267 590.464C470.34 590.422 470.401 590.362 470.443 590.289C470.486 590.216 470.509 590.134 470.509 590.05C470.509 559.574 470.535 529.676 470.586 500.356C470.592 498.628 471.391 497.902 472.983 498.18C473.448 498.261 473.885 498.459 474.253 498.756C474.62 499.054 474.906 499.441 475.082 499.88L523.456 621.061C523.575 621.362 523.776 621.594 524.059 621.758ZM519.453 565.795C519.474 565.851 519.515 565.898 519.568 565.928C519.621 565.957 519.683 565.966 519.742 565.954C519.802 565.941 519.855 565.908 519.892 565.861C519.929 565.813 519.948 565.753 519.946 565.693L519.878 526.497C519.878 526.465 519.872 526.434 519.86 526.404L488.555 448.098C488.541 448.064 488.519 448.034 488.493 448.009C488.466 447.985 488.434 447.966 488.399 447.955C488.365 447.944 488.328 447.94 488.292 447.944C488.256 447.948 488.221 447.96 488.19 447.979L475.559 455.415C475.507 455.447 475.468 455.496 475.45 455.553C475.431 455.611 475.433 455.673 475.456 455.729L519.453 565.795ZM546.372 494.508C546.413 494.532 546.46 494.545 546.508 494.545C546.556 494.545 546.603 494.532 546.644 494.508L558.604 487.565C558.646 487.542 558.681 487.507 558.706 487.465C558.731 487.423 558.744 487.376 558.744 487.327C558.744 487.279 558.731 487.231 558.706 487.189C558.681 487.147 558.646 487.113 558.604 487.089L539.241 475.897C539.199 475.873 539.152 475.86 539.104 475.86C539.057 475.86 539.01 475.873 538.969 475.897L526.848 482.823C526.805 482.846 526.769 482.879 526.743 482.921C526.718 482.962 526.704 483.01 526.703 483.058C526.702 483.107 526.714 483.155 526.738 483.197C526.762 483.239 526.797 483.275 526.839 483.299L546.372 494.508Z" fill="#124A57"/>
<path d="M574.755 311.771C484.017 259.445 393.747 207.434 306.996 157.275C303.415 155.207 299.992 153.649 296.728 152.601C296.687 152.587 296.65 152.561 296.624 152.526C296.597 152.491 296.581 152.449 296.579 152.405C296.576 152.362 296.586 152.318 296.608 152.28C296.63 152.242 296.663 152.212 296.702 152.193C299.264 150.946 301.771 149.513 304.225 147.893C311.688 142.963 318.165 147.264 324.582 150.969C412.841 201.881 501.824 253.216 591.534 304.972C597.931 308.661 603.139 313.76 607.156 320.27C607.181 320.309 607.197 320.352 607.204 320.397C607.212 320.443 607.21 320.489 607.198 320.533C607.187 320.578 607.167 320.619 607.14 320.656C607.112 320.692 607.077 320.723 607.038 320.746L593.03 328.794C592.843 328.9 592.622 328.93 592.414 328.876C592.206 328.822 592.027 328.689 591.916 328.505C587.598 321.457 581.878 315.879 574.755 311.771Z" fill="#9A5CFF"/>
<path d="M596.146 403.047C596.146 403.285 596.044 403.344 595.84 403.225L281.978 222.205C281.849 222.133 281.741 222.027 281.667 221.898C281.592 221.77 281.553 221.623 281.553 221.474C281.541 207.372 281.547 191.383 281.57 173.508C281.575 171.468 281.66 169.434 281.825 167.406C282.624 157.879 290.707 153.885 299.131 158.151C301.539 159.369 304.154 160.791 306.976 162.417C391.795 211.358 476.795 260.389 561.976 309.511C570.578 314.474 575.443 317.375 576.571 318.214C588.352 326.984 596.325 341.857 596.24 356.517C596.16 370.982 596.129 386.492 596.146 403.047ZM311.898 204.902L328.005 214.267C328.279 214.426 328.592 214.506 328.91 214.499C329.227 214.491 329.538 214.396 329.807 214.225C330.362 213.874 330.722 213.426 330.887 212.882C331.272 211.613 330.887 210.65 329.731 209.993L309.662 198.613C309.618 198.587 309.582 198.55 309.557 198.505C309.533 198.461 309.52 198.411 309.521 198.36C309.522 198.309 309.536 198.259 309.562 198.216C309.589 198.172 309.626 198.136 309.671 198.112L317.703 193.667C319.001 192.947 319.477 191.868 319.131 190.429C318.916 189.556 318.023 189.196 316.454 189.349C316.162 189.377 315.881 189.467 315.629 189.613L303.959 196.361C302.576 197.16 302.284 198.247 303.083 199.624L314.856 220.055C315.592 221.335 316.658 221.743 318.052 221.279C318.29 221.199 318.496 221.058 318.672 220.854C319.386 220.004 319.465 219.097 318.91 218.134L311.481 205.31C311.096 204.653 311.235 204.517 311.898 204.902ZM353.905 224.67C352.57 238.48 361.631 254.474 373.421 261.273C394.212 273.251 414.694 285.066 434.867 296.721C436.533 297.684 438.142 298.474 439.695 299.092C449.334 302.908 456.661 296.576 457.307 287.015C458.251 273.129 449.232 258.154 437.315 251.253C415.549 238.658 394.809 226.701 375.095 215.381C370.845 212.95 365.193 211.658 360.662 213.868C356.769 215.772 354.304 220.48 353.905 224.67ZM497.682 312.656C497.659 312.339 497.784 312.256 498.056 312.409L506.607 317.084C507.4 317.52 508.146 317.449 508.843 316.871C509.109 316.656 509.304 316.404 509.429 316.115C509.979 314.88 509.67 313.925 508.503 313.251L498.396 307.361C498.169 307.23 497.981 307.041 497.851 306.812C497.721 306.584 497.654 306.324 497.657 306.061L497.818 294.231C497.823 293.9 497.735 293.574 497.563 293.291C497.392 293.008 497.144 292.78 496.849 292.633C496.401 292.406 495.945 292.313 495.481 292.353C493.973 292.5 493.228 293.33 493.245 294.843L493.339 303.605C493.344 304.183 493.095 304.327 492.591 304.038L484.49 299.338C484.175 299.155 483.813 299.069 483.448 299.092C483.083 299.114 482.733 299.245 482.442 299.466C481.977 299.817 481.674 300.228 481.532 300.698C481.175 301.871 481.529 302.761 482.595 303.367L492.973 309.282C493.177 309.401 493.279 309.576 493.279 309.809L493.296 322.089C493.298 322.672 493.53 323.229 493.941 323.64C494.352 324.051 494.909 324.282 495.489 324.282C495.591 324.282 495.69 324.282 495.787 324.282C496.926 324.259 497.543 323.678 497.64 322.54C497.9 319.242 497.914 315.948 497.682 312.656ZM540.344 326.415C540.348 326.471 540.337 326.528 540.313 326.579C540.289 326.629 540.252 326.673 540.205 326.704C540.159 326.735 540.106 326.754 540.051 326.757C539.996 326.759 539.941 326.747 539.893 326.721C538.652 326.052 537.448 325.313 536.281 324.503C534.632 323.347 532.286 323.712 532.286 326.118C532.28 331.88 532.288 338.052 532.311 344.636C532.311 344.98 532.402 345.317 532.573 345.614C532.745 345.911 532.992 346.157 533.289 346.327L555.278 359.016C555.604 359.203 555.974 359.301 556.35 359.301C556.727 359.3 557.096 359.2 557.42 359.011C557.745 358.822 558.013 358.55 558.198 358.224C558.383 357.898 558.479 357.529 558.474 357.154L558.44 352.463C558.44 352.394 558.458 352.326 558.491 352.265C558.525 352.205 558.573 352.154 558.631 352.118C558.689 352.082 558.756 352.062 558.823 352.06C558.891 352.058 558.958 352.074 559.018 352.106C560.208 352.747 561.458 353.475 562.767 354.29C564.314 355.251 566.481 354.698 566.498 352.599C566.526 346.14 566.526 340.016 566.498 334.225C566.498 333.856 566.4 333.493 566.214 333.172C566.027 332.851 565.759 332.584 565.436 332.398C558.301 328.256 551.246 324.154 544.271 320.092C543.174 319.446 541.143 318.987 540.599 320.568C539.995 322.285 540.191 324.63 540.344 326.415Z" fill="#9A5CFF"/>
<path d="M311.902 204.901C311.239 204.516 311.1 204.652 311.485 205.309L318.914 218.133C319.47 219.097 319.39 220.003 318.676 220.853C318.501 221.057 318.294 221.199 318.056 221.278C316.662 221.743 315.597 221.335 314.86 220.054L303.087 199.623C302.288 198.247 302.58 197.159 303.963 196.36L315.633 189.612C315.885 189.466 316.167 189.377 316.458 189.349C318.028 189.196 318.92 189.555 319.135 190.428C319.481 191.867 319.005 192.946 317.707 193.666L309.675 198.111C309.63 198.135 309.593 198.171 309.567 198.215C309.54 198.258 309.526 198.308 309.525 198.359C309.524 198.41 309.537 198.46 309.562 198.505C309.587 198.549 309.623 198.586 309.666 198.612L329.735 209.992C330.891 210.649 331.276 211.612 330.891 212.881C330.727 213.425 330.367 213.873 329.811 214.224C329.542 214.396 329.232 214.49 328.914 214.498C328.596 214.505 328.283 214.425 328.009 214.267L311.902 204.901Z" fill="#124A57"/>
<path d="M373.42 261.273C361.631 254.474 352.57 238.48 353.904 224.669C354.304 220.48 356.769 215.771 360.662 213.868C365.192 211.658 370.845 212.95 375.095 215.38C394.809 226.701 415.549 238.658 437.315 251.253C449.232 258.154 458.25 273.129 457.307 287.015C456.661 296.576 449.334 302.908 439.695 299.092C438.142 298.474 436.533 297.684 434.867 296.721C414.693 285.066 394.211 273.25 373.42 261.273ZM395.758 269.33C410.078 277.613 424.295 285.806 438.411 293.908C440.264 294.97 443.197 296.177 445.279 296.007C449.042 295.712 451.396 293.857 452.343 290.44C455.258 279.893 449.487 267.808 441.93 259.939C440.037 257.967 435.447 254.905 428.16 250.752C408.678 239.641 389.95 228.868 371.975 218.431C370.06 217.321 367.714 216.839 364.937 216.987C361.469 217.182 359.149 220.123 358.486 223.233C357.817 226.344 357.825 229.596 358.511 232.99C360.154 241.199 364.26 248.318 370.828 254.347C372.006 255.429 373.27 256.358 374.619 257.134C381.736 261.23 388.782 265.296 395.758 269.33Z" fill="#124A57"/>
<path d="M655.29 230.958C669.366 238.012 681.657 249.579 691.015 261.995C707.48 283.845 718.513 310.284 718.054 337.701C718.051 337.96 717.98 338.214 717.849 338.438C717.718 338.661 717.531 338.847 717.306 338.976L705.474 345.843C705.412 345.877 705.341 345.895 705.27 345.894C705.199 345.892 705.129 345.872 705.069 345.835C705.008 345.797 704.958 345.745 704.925 345.682C704.891 345.619 704.876 345.548 704.879 345.477C705.1 339.766 704.663 333.99 703.57 328.148C701.66 317.956 698.495 307.981 694.075 298.225C684.224 276.451 669.298 256.59 650.011 243.162C640.585 236.601 628.693 231.256 617.32 231.154C616.527 231.142 616.462 230.921 617.125 230.491C628.923 222.783 642.939 224.771 655.29 230.958Z" fill="#9A5CFF"/>
<path d="M427.789 275.236C426.505 271.191 425.375 267.018 428.911 263.729C429.914 262.803 430.755 262.922 431.954 262.59C432.39 262.471 432.843 262.469 433.314 262.582C438.397 263.865 441.465 267.758 443.335 272.347C444.287 274.692 444.542 277.035 444.1 279.375C443.199 284.049 438.966 285.282 434.895 283.293C433.178 282.455 431.693 281.177 430.441 279.46C430.305 279.274 430.101 279.149 429.873 279.113C429.646 279.076 429.413 279.131 429.225 279.265C428.052 280.098 425.57 281.789 424.202 280.777C423.947 280.59 423.741 280.344 423.6 280.061C423.459 279.778 423.387 279.466 423.391 279.15C423.394 278.834 423.472 278.523 423.619 278.243C423.766 277.963 423.977 277.722 424.236 277.539C425.307 276.786 426.398 276.208 427.508 275.806C427.78 275.704 427.874 275.514 427.789 275.236ZM439.261 279.969C439.667 279.732 439.97 279.327 440.152 278.777C440.334 278.226 440.391 277.541 440.321 276.76C440.251 275.979 440.055 275.118 439.743 274.225C439.432 273.333 439.011 272.427 438.506 271.558C438.001 270.69 437.42 269.877 436.798 269.166C436.176 268.454 435.524 267.858 434.879 267.411C434.235 266.964 433.61 266.676 433.042 266.562C432.473 266.448 431.971 266.511 431.565 266.748C431.159 266.984 430.856 267.389 430.674 267.939C430.493 268.49 430.435 269.175 430.505 269.956C430.575 270.737 430.772 271.599 431.083 272.491C431.395 273.384 431.815 274.29 432.32 275.158C432.826 276.026 433.406 276.839 434.028 277.551C434.651 278.262 435.303 278.858 435.947 279.305C436.592 279.752 437.216 280.04 437.785 280.154C438.353 280.268 438.855 280.205 439.261 279.969Z" fill="#124A57"/>
<path d="M647.964 272.899L646.553 327.587C646.552 327.632 646.538 327.676 646.515 327.715C646.492 327.753 646.459 327.785 646.42 327.807C646.38 327.829 646.336 327.841 646.291 327.841C646.246 327.841 646.202 327.83 646.162 327.808L639.949 324.23C639.911 324.207 639.879 324.175 639.856 324.136C639.834 324.098 639.822 324.054 639.821 324.009L638.461 267.604C638.459 267.556 638.47 267.509 638.492 267.467C638.515 267.425 638.549 267.39 638.59 267.365C638.631 267.341 638.677 267.328 638.725 267.328C638.773 267.328 638.82 267.341 638.861 267.366L647.828 272.669C647.869 272.692 647.903 272.725 647.927 272.765C647.951 272.806 647.964 272.852 647.964 272.899Z" fill="#124A57"/>
<path d="M202.941 296.415L182.073 284.381C182.034 284.358 182.002 284.326 181.98 284.287C181.957 284.249 181.945 284.205 181.945 284.16C181.945 284.115 181.957 284.071 181.98 284.032C182.002 283.993 182.034 283.961 182.073 283.939L194.126 277.004C194.165 276.982 194.209 276.97 194.254 276.97C194.298 276.97 194.342 276.982 194.381 277.004L215.172 288.978C215.211 289.001 215.243 289.033 215.266 289.072C215.288 289.111 215.3 289.155 215.3 289.199C215.3 289.244 215.288 289.288 215.266 289.327C215.243 289.366 215.211 289.398 215.172 289.42L203.196 296.415C203.157 296.437 203.113 296.449 203.068 296.449C203.023 296.449 202.979 296.437 202.941 296.415Z" fill="#9A5CFF"/>
<path d="M497.683 312.656C497.915 315.948 497.901 319.242 497.64 322.54C497.544 323.678 496.926 324.259 495.787 324.282C495.691 324.282 495.592 324.282 495.49 324.282C494.91 324.282 494.353 324.051 493.942 323.64C493.531 323.229 493.299 322.672 493.297 322.089L493.28 309.809C493.28 309.576 493.178 309.401 492.974 309.282L482.595 303.367C481.53 302.761 481.176 301.871 481.533 300.698C481.675 300.228 481.978 299.817 482.442 299.466C482.734 299.245 483.084 299.114 483.449 299.092C483.813 299.069 484.176 299.155 484.491 299.338L492.591 304.038C493.096 304.327 493.345 304.183 493.339 303.605L493.246 294.843C493.229 293.33 493.974 292.5 495.481 292.353C495.946 292.313 496.402 292.406 496.85 292.633C497.145 292.78 497.393 293.008 497.564 293.291C497.735 293.574 497.824 293.9 497.819 294.231L497.657 306.061C497.655 306.324 497.722 306.584 497.852 306.812C497.982 307.041 498.17 307.23 498.397 307.361L508.503 313.251C509.671 313.925 509.98 314.88 509.43 316.115C509.305 316.404 509.11 316.656 508.843 316.871C508.146 317.449 507.401 317.52 506.608 317.084L498.057 312.409C497.785 312.256 497.66 312.339 497.683 312.656Z" fill="#124A57"/>
<path d="M231.131 414.264L205.529 300.349C205.518 300.295 205.524 300.239 205.547 300.188C205.57 300.138 205.608 300.096 205.656 300.069L218.134 292.751C218.17 292.73 218.21 292.718 218.252 292.715C218.293 292.713 218.335 292.72 218.373 292.737C218.411 292.753 218.445 292.779 218.471 292.811C218.498 292.843 218.516 292.881 218.525 292.921L239.767 387.46C239.778 387.504 239.778 387.551 239.767 387.596L231.641 414.29C231.623 414.346 231.588 414.394 231.54 414.428C231.492 414.462 231.434 414.478 231.376 414.475C231.317 414.472 231.261 414.45 231.217 414.412C231.173 414.374 231.142 414.322 231.131 414.264Z" fill="#9A5CFF"/>
<path d="M540.349 326.414C540.196 324.629 540 322.284 540.604 320.567C541.148 318.986 543.179 319.445 544.276 320.091C551.251 324.154 558.306 328.255 565.441 332.397C565.764 332.583 566.032 332.85 566.219 333.171C566.405 333.492 566.503 333.855 566.503 334.224C566.532 340.015 566.532 346.139 566.503 352.598C566.486 354.698 564.319 355.25 562.772 354.29C561.463 353.474 560.213 352.746 559.023 352.105C558.964 352.073 558.897 352.057 558.829 352.059C558.761 352.061 558.695 352.081 558.636 352.117C558.578 352.153 558.53 352.204 558.496 352.265C558.463 352.325 558.445 352.393 558.445 352.462L558.479 357.154C558.484 357.528 558.389 357.898 558.204 358.224C558.018 358.55 557.75 358.821 557.425 359.01C557.101 359.199 556.732 359.299 556.356 359.3C555.979 359.301 555.609 359.202 555.283 359.015L533.294 346.326C532.997 346.156 532.75 345.91 532.579 345.613C532.407 345.316 532.317 344.979 532.316 344.635C532.294 338.052 532.285 331.879 532.291 326.117C532.291 323.712 534.637 323.346 536.286 324.502C537.453 325.312 538.657 326.052 539.898 326.72C539.947 326.746 540.001 326.759 540.056 326.756C540.111 326.753 540.165 326.735 540.211 326.703C540.257 326.672 540.294 326.629 540.318 326.578C540.343 326.527 540.353 326.47 540.349 326.414ZM561.675 348.613C561.719 348.638 561.768 348.651 561.819 348.651C561.869 348.651 561.919 348.638 561.963 348.613C562.007 348.589 562.043 348.553 562.069 348.509C562.094 348.466 562.108 348.416 562.109 348.366L561.981 335.61C561.981 335.56 561.967 335.51 561.942 335.467C561.916 335.424 561.88 335.388 561.837 335.363L545.041 325.717C544.996 325.692 544.946 325.678 544.895 325.679C544.844 325.679 544.794 325.692 544.75 325.718C544.706 325.744 544.669 325.781 544.644 325.826C544.619 325.871 544.606 325.921 544.607 325.972L544.692 329.193C544.692 329.242 544.704 329.291 544.728 329.334C544.752 329.377 544.786 329.414 544.828 329.44L558.216 337.301C558.258 337.327 558.292 337.363 558.316 337.406C558.34 337.45 558.352 337.498 558.352 337.547L558.522 346.581C558.522 346.631 558.534 346.679 558.558 346.722C558.582 346.765 558.616 346.802 558.658 346.828L561.675 348.613ZM537.059 330.111C537.015 330.085 536.965 330.072 536.914 330.072C536.862 330.073 536.812 330.086 536.768 330.112C536.724 330.138 536.688 330.175 536.663 330.22C536.638 330.264 536.625 330.315 536.626 330.366L536.821 343.037C536.822 343.088 536.836 343.137 536.861 343.18C536.886 343.223 536.922 343.259 536.966 343.284L553.77 353.049C553.815 353.074 553.865 353.088 553.916 353.088C553.967 353.087 554.017 353.074 554.061 353.048C554.105 353.022 554.142 352.985 554.167 352.94C554.192 352.895 554.205 352.845 554.204 352.794L554.008 340.088C554.008 340.038 553.994 339.989 553.969 339.946C553.943 339.903 553.907 339.867 553.864 339.842L537.059 330.111Z" fill="#124A57"/>
<path d="M284.836 343.625L263.867 331.642C263.824 331.618 263.789 331.584 263.764 331.542C263.74 331.5 263.727 331.452 263.727 331.404C263.727 331.355 263.74 331.307 263.764 331.265C263.789 331.224 263.824 331.189 263.867 331.166L275.996 324.231C276.038 324.207 276.085 324.194 276.132 324.194C276.18 324.194 276.227 324.207 276.268 324.231L297.119 336.18C297.161 336.203 297.197 336.238 297.222 336.28C297.246 336.321 297.259 336.369 297.259 336.418C297.259 336.466 297.246 336.514 297.222 336.556C297.197 336.598 297.161 336.632 297.119 336.656L285.108 343.625C285.067 343.648 285.02 343.661 284.972 343.661C284.925 343.661 284.878 343.648 284.836 343.625Z" fill="#9A5CFF"/>
<path d="M561.67 348.613L558.652 346.828C558.61 346.802 558.576 346.766 558.552 346.722C558.528 346.679 558.516 346.631 558.516 346.582L558.346 337.548C558.346 337.498 558.334 337.45 558.31 337.407C558.286 337.363 558.252 337.327 558.21 337.301L544.823 329.44C544.781 329.414 544.746 329.377 544.723 329.334C544.699 329.291 544.686 329.243 544.687 329.193L544.602 325.972C544.601 325.921 544.613 325.871 544.638 325.826C544.664 325.782 544.7 325.745 544.744 325.719C544.788 325.693 544.838 325.679 544.889 325.679C544.941 325.679 544.991 325.692 545.035 325.717L561.831 335.363C561.874 335.388 561.911 335.424 561.936 335.467C561.961 335.511 561.975 335.56 561.976 335.61L562.103 348.366C562.102 348.417 562.089 348.466 562.063 348.509C562.037 348.553 562.001 348.589 561.957 348.614C561.913 348.639 561.864 348.652 561.813 348.651C561.763 348.651 561.713 348.638 561.67 348.613Z" fill="#9A5CFF"/>
<path d="M537.059 330.112L553.863 339.843C553.906 339.868 553.943 339.904 553.968 339.947C553.993 339.99 554.007 340.039 554.008 340.089L554.203 352.795C554.204 352.846 554.191 352.896 554.166 352.941C554.141 352.985 554.105 353.023 554.061 353.049C554.017 353.074 553.966 353.088 553.915 353.088C553.864 353.089 553.814 353.075 553.77 353.05L536.965 343.285C536.922 343.26 536.886 343.224 536.86 343.181C536.835 343.137 536.821 343.088 536.821 343.038L536.625 330.367C536.624 330.316 536.637 330.265 536.662 330.221C536.687 330.176 536.723 330.139 536.767 330.113C536.812 330.087 536.862 330.073 536.913 330.073C536.964 330.073 537.014 330.086 537.059 330.112Z" fill="#9A5CFF"/>
<path d="M638.806 345.384C641.025 349.61 644.788 352.005 647.212 350.733C649.635 349.461 649.8 345.004 647.581 340.778C645.362 336.551 641.598 334.156 639.175 335.428C636.752 336.7 636.586 341.157 638.806 345.384Z" fill="#124A57"/>
<path d="M420.756 424.31C425.465 433.523 428.02 443.341 428.423 453.766C428.428 453.913 428.394 454.057 428.323 454.185C428.253 454.312 428.149 454.417 428.023 454.489L416.064 461.33C416.021 461.354 415.974 461.366 415.926 461.365C415.878 461.365 415.83 461.352 415.788 461.328C415.747 461.304 415.712 461.27 415.687 461.229C415.662 461.187 415.648 461.14 415.647 461.092C415.624 457.902 415.239 454.622 414.491 451.251C408.949 426.358 392.051 405.537 369.909 392.729C355.334 384.293 340.986 376.047 326.865 367.99C326.649 367.865 326.649 367.743 326.865 367.624L338.348 361.004C338.63 360.844 338.948 360.76 339.271 360.762C339.593 360.763 339.908 360.85 340.184 361.013C353.778 368.967 367.242 376.729 380.576 384.299C386.01 387.387 390.7 390.401 394.644 393.341C405.728 401.613 414.432 411.936 420.756 424.31Z" fill="#9A5CFF"/>
<path d="M242.074 377.372L243.051 377.338C242.983 377.757 242.844 378.114 242.635 378.409C242.442 378.675 242.261 378.669 242.091 378.392C241.892 378.063 241.887 377.723 242.074 377.372Z" fill="#9A5CFF"/>
<path d="M352.629 404.593C356.93 407.137 361.166 409.574 365.337 411.902C370.652 414.865 374.61 417.523 377.211 419.874C385.581 427.432 390.29 437.123 391.338 448.948C391.621 452.16 391.318 455.469 390.428 458.874C388.822 464.984 383.781 468.766 377.253 467.611C374.528 467.129 372.06 466.268 369.85 465.027C362.183 460.715 354.017 456.024 345.353 450.953C345.112 450.81 344.912 450.608 344.774 450.367C344.635 450.125 344.562 449.853 344.563 449.576L344.605 403.268C344.605 402.942 344.69 402.621 344.851 402.338C345.012 402.054 345.245 401.818 345.525 401.652C345.805 401.485 346.124 401.395 346.45 401.389C346.776 401.383 347.098 401.462 347.385 401.619C349.198 402.605 350.946 403.596 352.629 404.593ZM385.907 450.188C386.972 450.8 387.459 450.494 387.369 449.271C387.193 446.766 386.728 444.157 385.974 441.443C383 430.746 376.46 422.693 366.357 417.282C366.279 417.241 366.192 417.221 366.104 417.223C366.016 417.226 365.931 417.251 365.855 417.296C365.78 417.341 365.718 417.405 365.675 417.482C365.631 417.558 365.609 417.644 365.609 417.732L365.583 437.942C365.583 438.282 365.727 438.534 366.016 438.698L385.907 450.188ZM351.507 449.712C358.095 453.46 364.614 457.208 371.252 461.033C375.893 463.71 382.863 465.766 385.728 459.528C386.283 458.31 386.623 457.118 386.748 455.95C386.782 455.633 386.66 455.392 386.383 455.228L365.039 442.982C364.042 442.409 363.044 442.409 362.047 442.982L351.507 449.058C351.45 449.093 351.402 449.141 351.369 449.2C351.336 449.258 351.318 449.323 351.318 449.389C351.318 449.456 351.336 449.521 351.369 449.577C351.402 449.634 351.45 449.68 351.507 449.712Z" fill="#124A57"/>
<path d="M472.461 451.888L452.962 440.72C452.922 440.698 452.888 440.664 452.864 440.624C452.841 440.583 452.828 440.538 452.828 440.491C452.828 440.444 452.841 440.398 452.864 440.358C452.888 440.318 452.922 440.284 452.962 440.261L465.041 433.293C465.08 433.271 465.124 433.26 465.168 433.26C465.213 433.26 465.257 433.271 465.296 433.293L484.854 444.485C484.895 444.508 484.929 444.542 484.952 444.582C484.976 444.622 484.988 444.668 484.988 444.715C484.988 444.762 484.976 444.807 484.952 444.848C484.929 444.888 484.895 444.921 484.854 444.944L472.716 451.888C472.677 451.909 472.633 451.921 472.589 451.921C472.544 451.921 472.5 451.909 472.461 451.888Z" fill="#9A5CFF"/>
<path d="M371.254 461.033C364.616 457.209 358.096 453.461 351.509 449.713C351.452 449.681 351.404 449.634 351.371 449.578C351.338 449.521 351.32 449.456 351.32 449.39C351.32 449.324 351.338 449.258 351.371 449.2C351.404 449.142 351.452 449.093 351.509 449.058L362.049 442.982C363.046 442.41 364.044 442.41 365.041 442.982L386.384 455.228C386.662 455.393 386.784 455.634 386.75 455.951C386.625 457.118 386.285 458.311 385.73 459.529C382.865 465.767 375.895 463.71 371.254 461.033Z" fill="#9A5CFF"/>
<path d="M519.453 565.795L475.457 455.729C475.434 455.673 475.431 455.611 475.45 455.553C475.469 455.496 475.507 455.447 475.559 455.415L488.19 447.979C488.221 447.96 488.256 447.948 488.292 447.944C488.328 447.94 488.365 447.944 488.4 447.955C488.434 447.966 488.466 447.985 488.493 448.009C488.52 448.034 488.541 448.064 488.555 448.098L519.861 526.404C519.872 526.434 519.878 526.465 519.878 526.497L519.946 565.693C519.948 565.753 519.929 565.813 519.892 565.861C519.855 565.908 519.802 565.941 519.743 565.954C519.683 565.966 519.622 565.957 519.569 565.927C519.515 565.898 519.474 565.851 519.453 565.795Z" fill="#9A5CFF"/>
<path d="M166.144 485.378C166.784 486.341 166.645 487.242 165.727 488.08C165.501 488.29 165.234 488.386 164.928 488.369C162.71 488.267 160.653 487.63 158.434 487.409C150.847 486.678 143.336 487.001 135.901 488.378C135.589 488.44 135.306 488.378 135.051 488.191C134.09 487.503 133.648 486.466 134.328 485.403C137.371 480.633 137.366 475.825 134.311 470.981C133.631 469.893 134.286 468.636 135.374 468.117C135.618 468.004 135.87 467.973 136.13 468.024C144.778 469.746 153.377 469.902 161.928 468.491C163.679 468.211 165.064 467.361 166.356 469.214C166.449 469.346 166.512 469.497 166.54 469.656C166.568 469.815 166.56 469.977 166.518 470.131C166.067 471.729 164.894 472.936 164.478 474.585C163.464 478.579 164.019 482.177 166.144 485.378ZM139.921 473.548C140.678 476.726 140.737 479.811 139.913 482.922C139.895 482.993 139.894 483.068 139.911 483.14C139.928 483.212 139.962 483.279 140.011 483.335C140.059 483.391 140.12 483.434 140.189 483.462C140.258 483.489 140.332 483.499 140.406 483.491C146.526 482.885 153.147 482.885 160.27 483.491C160.34 483.496 160.41 483.485 160.475 483.458C160.539 483.43 160.596 483.388 160.641 483.335C160.685 483.281 160.715 483.218 160.729 483.15C160.743 483.083 160.74 483.013 160.721 482.947C159.78 479.712 159.766 476.522 160.678 473.378C160.775 473.038 160.644 472.871 160.287 472.876C157.89 472.944 155.51 473.446 153.122 473.505C148.985 473.607 144.809 473.375 140.593 472.808C140.009 472.729 139.785 472.976 139.921 473.548Z" fill="#124A57"/>
<path d="M546.372 494.509L526.839 483.299C526.797 483.275 526.762 483.24 526.738 483.197C526.715 483.155 526.702 483.107 526.703 483.059C526.704 483.01 526.718 482.963 526.743 482.921C526.769 482.88 526.805 482.846 526.848 482.823L538.969 475.897C539.01 475.873 539.057 475.86 539.105 475.86C539.153 475.86 539.199 475.873 539.241 475.897L558.604 487.089C558.646 487.113 558.682 487.147 558.706 487.189C558.731 487.231 558.744 487.279 558.744 487.327C558.744 487.376 558.731 487.424 558.706 487.466C558.682 487.507 558.646 487.542 558.604 487.565L546.644 494.509C546.603 494.533 546.556 494.545 546.508 494.545C546.461 494.545 546.414 494.533 546.372 494.509Z" fill="#9A5CFF"/>
<path d="M692.411 524.422C691.235 525.103 689.858 525.409 688.357 525.322C686.856 525.236 685.262 524.759 683.664 523.918C682.066 523.077 680.496 521.889 679.045 520.422C677.593 518.955 676.288 517.237 675.204 515.367C674.119 513.496 673.277 511.51 672.725 509.522C672.173 507.533 671.922 505.581 671.986 503.777C672.051 501.973 672.429 500.352 673.1 499.007C673.771 497.662 674.721 496.619 675.896 495.938C677.072 495.256 678.449 494.95 679.95 495.037C681.45 495.123 683.045 495.6 684.643 496.441C686.241 497.282 687.81 498.47 689.262 499.937C690.713 501.404 692.019 503.122 693.103 504.993C694.187 506.863 695.03 508.849 695.582 510.838C696.134 512.826 696.385 514.778 696.32 516.582C696.256 518.387 695.878 520.007 695.207 521.353C694.536 522.698 693.586 523.74 692.411 524.422ZM690.37 520.862C691.083 520.447 691.628 519.76 691.975 518.841C692.322 517.922 692.463 516.788 692.391 515.504C692.318 514.22 692.034 512.812 691.553 511.359C691.073 509.907 690.406 508.438 689.591 507.037C687.944 504.209 685.793 501.829 683.611 500.421C681.428 499.014 679.393 498.694 677.954 499.531C677.241 499.946 676.695 500.633 676.349 501.552C676.002 502.472 675.861 503.605 675.933 504.889C676.005 506.173 676.29 507.581 676.77 509.034C677.251 510.487 677.918 511.955 678.733 513.356C680.379 516.184 682.531 518.564 684.713 519.972C686.895 521.38 688.93 521.7 690.37 520.862Z" fill="#124A57"/>
<path d="M519.064 512.398C519.387 512.478 519.707 512.498 520.024 512.458C520.171 512.934 520.194 513.342 520.092 513.682C519.99 514.005 519.823 514.042 519.591 513.792C519.222 513.407 519.047 512.942 519.064 512.398Z" fill="#9A5CFF"/>
<path d="M318.756 607.574C318.881 606.985 318.699 606.543 318.212 606.249C317.929 606.079 317.725 606.147 317.6 606.453C317.464 606.781 317.631 607.175 318.102 607.634L318.416 632.135C318.42 632.342 318.382 632.548 318.305 632.74C318.228 632.932 318.113 633.107 317.968 633.255C317.822 633.402 317.649 633.52 317.457 633.601C317.266 633.681 317.06 633.724 316.852 633.725L295.373 633.742C294.89 633.744 294.424 633.56 294.074 633.227C293.724 632.895 293.516 632.439 293.494 631.957C293.341 628.897 292.908 625.668 291.658 622.804C289.981 618.985 287.485 615.453 284.17 612.206C284.113 612.15 284.04 612.112 283.962 612.097C283.883 612.082 283.802 612.091 283.728 612.123C283.654 612.155 283.59 612.208 283.544 612.275C283.499 612.343 283.474 612.422 283.473 612.504L283.498 631.795C283.498 632.041 283.45 632.283 283.356 632.51C283.262 632.736 283.124 632.942 282.95 633.115C282.776 633.287 282.57 633.424 282.343 633.517C282.116 633.61 281.873 633.658 281.628 633.657L260.115 633.64C259.687 633.638 259.277 633.468 258.972 633.168C258.667 632.868 258.492 632.461 258.483 632.033C258.432 629.218 257.599 626.818 255.984 624.835C252.669 620.756 248.387 617.895 243.14 616.251C243.099 616.24 243.056 616.237 243.015 616.245C242.973 616.253 242.933 616.27 242.9 616.296C242.866 616.321 242.838 616.354 242.82 616.392C242.801 616.431 242.791 616.472 242.792 616.515C242.894 620.708 242.913 624.744 242.851 628.625C242.823 630.223 242.415 631.526 241.627 632.535C237.845 637.388 230.637 638.016 224.559 636.776C220.836 636.011 216.136 633.164 216.17 628.889C216.209 623.62 216.189 618.082 216.11 612.274C216.059 608.399 218.567 605.671 222.018 604.557C222.329 604.455 222.482 604.243 222.477 603.92C222.414 583.195 222.375 562.461 222.358 541.719C222.358 540.435 222.919 539.246 224.381 539.229C239.652 539.11 255.156 540.787 270.893 544.26C288.085 548.05 303.589 554.061 317.405 562.294C325.225 566.957 332.047 572.356 337.873 578.492C343.381 584.3 347.523 590.679 350.3 597.631C352.481 603.081 353.592 608.94 353.632 615.206C353.666 620.141 353.657 625.668 353.606 631.787C353.602 632.302 353.394 632.795 353.028 633.158C352.661 633.521 352.167 633.725 351.651 633.725L330.393 633.708C330.142 633.708 329.894 633.657 329.663 633.56C329.432 633.462 329.223 633.319 329.049 633.139C328.874 632.959 328.738 632.746 328.648 632.512C328.557 632.278 328.515 632.029 328.523 631.778C328.574 630.436 328.5 629.073 328.302 627.691C327.253 620.41 324.346 613.81 319.581 607.889C319.456 607.73 319.181 607.625 318.756 607.574ZM285.054 562.251C297.285 567.045 308.454 573.58 317.643 582.512C322.629 587.356 326.454 592.764 329.118 598.736C331.005 602.968 332.112 607.365 332.441 611.926C332.464 612.294 332.659 612.478 333.028 612.478L349.076 612.538C349.13 612.538 349.182 612.516 349.22 612.478C349.258 612.44 349.28 612.388 349.28 612.334C349.399 601.94 343.712 591.257 336.895 583.489C330.939 576.702 323.76 570.801 315.356 565.787C305.757 560.059 295.509 555.501 284.612 552.112C266.053 546.345 246.724 543.41 226.625 543.308C226.494 543.302 226.429 543.365 226.429 543.495L226.412 551.016C226.412 551.197 226.5 551.288 226.676 551.288C239.414 551.515 252.04 553.056 264.552 555.911C271.425 557.481 278.259 559.594 285.054 562.251ZM328.293 612.461C326.738 591.622 307.375 576.75 289.338 568.634C269.584 559.736 248.827 556.107 227.237 555.427C226.761 555.41 226.528 555.642 226.54 556.124L226.633 558.911C226.639 559.212 226.792 559.362 227.092 559.362C238.306 559.396 249.43 560.764 260.463 563.467C279.52 568.141 298.611 576.818 310.52 592.073C313.325 595.659 316.827 598.523 319.929 601.727C322.808 604.696 325.409 608.331 327.732 612.631C328.18 613.458 328.367 613.402 328.293 612.461ZM309.993 598.6C302.156 585.461 287.493 576.835 273.468 571.761C258.417 566.311 242.843 563.588 226.744 563.594C226.678 563.594 226.616 563.621 226.569 563.669C226.523 563.717 226.497 563.781 226.497 563.849L226.489 571.328C226.489 571.481 226.562 571.557 226.71 571.557C238.003 571.767 248.917 573.537 259.452 576.869C271.887 580.804 284.756 587.883 292.219 598.566C295.018 602.577 296.727 607.05 297.345 611.985C297.384 612.302 297.566 612.461 297.889 612.461L313.818 612.478C313.898 612.479 313.977 612.462 314.05 612.429C314.124 612.397 314.189 612.349 314.243 612.289C314.297 612.229 314.337 612.158 314.362 612.08C314.387 612.003 314.396 611.922 314.387 611.841C313.86 607.042 312.395 602.628 309.993 598.6ZM258.092 585.623C266.753 589.107 274.59 594.223 279.478 601.651C280.696 603.504 282.149 605.113 283.838 606.478C287.204 609.198 290.451 612.623 292.874 616.294C293.191 616.776 293.355 616.727 293.367 616.149C293.486 608.41 290.553 601.586 284.569 595.676C270.196 581.492 246.634 576.189 226.914 575.671C226.806 575.671 226.749 575.724 226.744 575.832L226.608 579.359C226.602 579.506 226.673 579.58 226.82 579.58C237.949 579.699 248.373 581.713 258.092 585.623ZM252.703 588.113C244.157 585.212 235.49 583.809 226.701 583.906C226.571 583.911 226.506 583.979 226.506 584.11L226.523 591.563C226.523 591.756 226.622 591.855 226.82 591.86C230.515 591.923 234.615 592.492 239.12 593.569C249.099 595.957 259.783 601.608 262.308 611.994C262.381 612.3 262.577 612.453 262.894 612.453L278.73 612.461C279.132 612.461 279.31 612.26 279.265 611.858C278.636 606.657 274.726 601.413 270.757 598.03C265.844 593.838 259.826 590.532 252.703 588.113ZM226.914 602.934C232.056 602.407 240.76 603.733 242.673 609.623C242.865 610.217 243.12 610.776 243.438 611.297C243.596 611.563 243.817 611.756 244.101 611.875C249.286 614.084 253.995 616.345 257.879 620.475C258.179 620.798 258.335 620.739 258.347 620.297C258.415 617.844 258.324 615.572 258.075 613.481C256.613 601.141 237.292 596.433 226.914 595.999C226.783 595.994 226.718 596.053 226.718 596.178L226.693 602.739C226.693 602.886 226.766 602.951 226.914 602.934ZM238.754 611.637C238.754 610.44 237.778 609.292 236.04 608.446C234.303 607.599 231.946 607.124 229.489 607.124C227.032 607.124 224.675 607.599 222.938 608.446C221.2 609.292 220.224 610.44 220.224 611.637C220.224 612.834 221.2 613.981 222.938 614.828C224.675 615.674 227.032 616.149 229.489 616.149C231.946 616.149 234.303 615.674 236.04 614.828C237.778 613.981 238.754 612.834 238.754 611.637ZM220.479 630.291C220.479 630.341 220.494 630.39 220.521 630.432C220.548 630.475 220.587 630.508 220.632 630.529L226.922 633.308C226.962 633.325 227.005 633.332 227.048 633.328C227.091 633.324 227.132 633.31 227.168 633.286C227.204 633.263 227.234 633.231 227.255 633.193C227.275 633.155 227.287 633.113 227.288 633.07L227.347 620.747C227.348 620.69 227.33 620.635 227.296 620.589C227.262 620.543 227.215 620.509 227.16 620.492L220.641 618.504C220.6 618.491 220.558 618.489 220.516 618.497C220.475 618.504 220.436 618.522 220.402 618.547C220.369 618.573 220.343 618.607 220.325 618.645C220.307 618.683 220.299 618.725 220.301 618.767L220.479 630.291Z" fill="#124A57"/>
<path d="M492.776 555.129C492.312 554.964 491.949 554.908 491.688 554.959C491.36 554.879 491.303 554.61 491.518 554.151C491.654 553.868 491.839 553.828 492.071 554.032C492.388 554.304 492.623 554.67 492.776 555.129Z" fill="#9A5CFF"/>
<path d="M289.337 568.634C307.374 576.75 326.737 591.622 328.293 612.461C328.367 613.401 328.18 613.458 327.732 612.631C325.409 608.33 322.808 604.696 319.929 601.727C316.826 598.523 313.324 595.659 310.519 592.073C298.611 576.818 279.52 568.141 260.463 563.466C249.43 560.764 238.306 559.396 227.092 559.362C226.792 559.362 226.639 559.211 226.633 558.911L226.539 556.124C226.528 555.642 226.76 555.41 227.236 555.427C248.826 556.107 269.583 559.735 289.337 568.634Z" fill="#9A5CFF"/>
<path d="M258.094 585.622C248.375 581.712 237.952 579.698 226.822 579.579C226.675 579.579 226.604 579.506 226.61 579.358L226.746 575.831C226.751 575.724 226.808 575.67 226.916 575.67C246.636 576.188 270.198 581.491 284.571 595.676C290.555 601.585 293.488 608.409 293.369 616.149C293.357 616.727 293.193 616.775 292.876 616.293C290.453 612.622 287.206 609.197 283.84 606.477C282.152 605.112 280.698 603.503 279.48 601.65C274.592 594.222 266.755 589.106 258.094 585.622Z" fill="#9A5CFF"/>
<path d="M242.675 609.623C240.763 603.733 232.059 602.407 226.916 602.934C226.769 602.951 226.695 602.886 226.695 602.739L226.721 596.178C226.721 596.053 226.786 595.994 226.916 595.999C237.295 596.433 256.615 601.141 258.077 613.481C258.327 615.572 258.417 617.844 258.349 620.297C258.338 620.739 258.182 620.798 257.882 620.475C253.997 616.345 249.288 614.084 244.103 611.875C243.82 611.756 243.599 611.563 243.44 611.297C243.123 610.776 242.868 610.218 242.675 609.623Z" fill="#9A5CFF"/>
<path d="M688.332 641.28C688.332 650.929 684.498 660.183 677.674 667.006C670.85 673.829 661.594 677.663 651.943 677.663C642.292 677.663 633.037 673.829 626.213 667.006C619.388 660.183 615.555 650.929 615.555 641.28C615.555 631.631 619.388 622.377 626.213 615.554C633.037 608.731 642.292 604.897 651.943 604.897C661.594 604.897 670.85 608.731 677.674 615.554C684.498 622.377 688.332 631.631 688.332 641.28ZM621.7 652.787C621.899 653.745 622.264 654.487 622.797 655.014C629.262 661.399 636.697 664.289 645.101 663.682C650.796 663.274 655.794 661.337 660.095 657.869C664.741 654.124 667.816 649.671 669.317 644.509C671.148 638.232 670.949 632.172 668.722 626.331C667.215 622.382 664.809 618.9 661.506 615.886C658.65 613.28 655.199 611.322 651.153 610.014C646.563 608.535 641.369 610.371 637.213 612.47C634.974 613.603 632.96 614.954 631.169 616.524C620.697 625.679 617.371 637.504 621.19 651.997C621.219 652.11 621.278 652.204 621.369 652.277C621.431 652.328 621.488 652.382 621.539 652.439C621.618 652.541 621.672 652.657 621.7 652.787ZM663.69 612.147C680.155 626.611 677.936 652.133 659.296 663.495C652.841 667.433 645.574 668.796 637.493 667.583C635.504 667.286 633.694 666.393 631.79 665.866C631.268 665.725 631.215 665.827 631.628 666.172C633.912 668.093 636.147 669.507 638.335 670.413C651.26 675.762 662.925 674.022 673.329 665.195C680.716 658.923 684.762 648.725 683.971 638.679C683.257 629.569 679.089 621.903 671.468 615.682C669.292 613.897 666.648 612.665 664.132 611.475C662.393 610.654 662.245 610.878 663.69 612.147Z" fill="#124A57"/>
<path d="M318.756 607.574L318.102 607.634C317.632 607.175 317.464 606.781 317.6 606.452C317.725 606.146 317.929 606.078 318.212 606.248C318.7 606.543 318.881 606.985 318.756 607.574Z" fill="#9A5CFF"/>
<path d="M659.294 663.495C677.934 652.133 680.153 626.611 663.688 612.147C662.243 610.878 662.39 610.654 664.13 611.475C666.646 612.665 669.29 613.898 671.466 615.682C679.087 621.903 683.255 629.569 683.969 638.68C684.76 648.725 680.714 658.923 673.327 665.195C662.923 674.022 651.258 675.762 638.333 670.413C636.145 669.507 633.91 668.093 631.626 666.172C631.212 665.827 631.266 665.725 631.788 665.867C633.692 666.393 635.502 667.286 637.491 667.583C645.572 668.796 652.839 667.433 659.294 663.495Z" fill="#9A5CFF"/>
<path d="M220.483 630.291L220.305 618.767C220.303 618.725 220.311 618.683 220.329 618.645C220.347 618.607 220.373 618.573 220.407 618.547C220.44 618.522 220.479 618.504 220.521 618.497C220.562 618.489 220.605 618.491 220.645 618.504L227.164 620.492C227.219 620.509 227.267 620.543 227.3 620.589C227.334 620.635 227.352 620.69 227.351 620.747L227.292 633.07C227.291 633.113 227.28 633.155 227.259 633.193C227.238 633.231 227.208 633.263 227.172 633.286C227.136 633.31 227.095 633.324 227.052 633.328C227.009 633.332 226.966 633.325 226.926 633.308L220.636 630.529C220.591 630.508 220.552 630.475 220.525 630.432C220.498 630.39 220.484 630.341 220.483 630.291Z" fill="#9A5CFF"/>
<path d="M434.509 694.566C434.787 694.394 435.107 694.3 435.435 694.294L452.146 694.26C452.449 694.258 452.739 694.136 452.952 693.921C453.166 693.706 453.285 693.416 453.285 693.113L453.277 684.614C453.277 683.782 453.659 683.198 454.424 682.864C455.189 682.529 455.974 682.773 456.779 683.595C457.1 683.916 457.28 684.35 457.28 684.801L457.331 693.572C457.331 694.037 457.561 694.269 458.02 694.269L474.918 694.294C475.23 694.294 475.535 694.38 475.802 694.541C477.071 695.323 477.567 696.093 477.289 696.853C476.915 697.867 476.187 698.374 475.105 698.374L457.773 698.306C457.715 698.305 457.656 698.315 457.602 698.338C457.547 698.36 457.497 698.393 457.455 698.435C457.414 698.477 457.38 698.527 457.357 698.582C457.335 698.637 457.323 698.696 457.323 698.756L457.306 707.739C457.306 708.153 457.168 708.559 456.915 708.895C456.246 709.779 455.586 710.164 454.934 710.051C453.931 709.881 453.41 709.286 453.37 708.266L453.03 698.858C453.019 698.501 452.832 698.323 452.469 698.323L435.308 698.348C434.294 698.348 433.577 697.887 433.157 696.963C432.8 696.17 433.251 695.371 434.509 694.566Z" fill="#124A57"/>
</svg>
